<svg xmlns="http://www.w3.org/2000/svg" width="313.708" height="92.586" viewBox="0 0 313.708 92.586">
    <defs>
        <style>
            .a {
                fill: #2aa4d5;
            }

            .b {
                fill: #000;
            }
        </style>
    </defs>
    <g transform="translate(35.542 35.51)">
        <g transform="translate(1.014 10.784)">
            <path class="a" d="M1278.875,553.1a.911.911,0,1,1-.173,1.809.909.909,0,0,1,.173-1.809Z"
                transform="translate(-1259.316 -553.101)" />
            <path class="a" d="M1273.723,564.943a.91.91,0,1,1-1.341,1.224.908.908,0,0,1,1.341-1.224Z"
                transform="translate(-1256.741 -558.315)" />
            <path class="a" d="M1268.326,568.673a.91.91,0,1,1-1.692.657.908.908,0,0,1,1.692-.657Z"
                transform="translate(-1254.226 -559.863)" />
            <path class="a" d="M1249.634,566.167a.91.91,0,1,1-1.34-1.224.908.908,0,0,1,1.34,1.224Z"
                transform="translate(-1245.843 -558.315)" />
            <path class="a" d="M1245.465,561.24a.911.911,0,1,1-.822-1.62.908.908,0,0,1,.822,1.62Z"
                transform="translate(-1244.076 -556.006)" />
            <path class="a"
                d="M1276.112,560.32l.163-.339a.075.075,0,0,1,.1-.029l1.556.722a.079.079,0,0,1,.034.107l-.2.41a.077.077,0,0,1-.105.038l-1.512-.811A.078.078,0,0,1,1276.112,560.32Z"
                transform="translate(-1258.511 -556.182)" />
            <path class="a"
                d="M1261.323,569.3a2.044,2.044,0,0,0,.376,0,.072.072,0,0,1,.071.074l.049,1.716a.083.083,0,0,1-.081.082,2.965,2.965,0,0,1-.454,0,.082.082,0,0,1-.08-.082l.049-1.716A.072.072,0,0,1,1261.323,569.3Z"
                transform="translate(-1251.795 -560.393)" />
            <path class="a"
                d="M1254.961,568.088l.353.129a.074.074,0,0,1,.038.1l-.573,1.618a.079.079,0,0,1-.1.045l-.427-.157a.077.077,0,0,1-.047-.1l.666-1.582A.078.078,0,0,1,1254.961,568.088Z"
                transform="translate(-1248.636 -559.847)" />
        </g>
        <path class="a" d="M1243.118,551.6a.911.911,0,1,1,.173-1.809.909.909,0,0,1-.173,1.809Z"
            transform="translate(-1242.23 -540.82)" />
        <path class="a" d="M1248.293,539.746a.91.91,0,1,1,1.34-1.224.908.908,0,0,1-1.34,1.224Z"
            transform="translate(-1244.829 -535.59)" />
        <path class="a" d="M1253.7,536a.91.91,0,1,1,1.692-.658.908.908,0,0,1-1.692.658Z"
            transform="translate(-1247.358 -534.029)" />
        <path class="a" d="M1272.382,538.522a.91.91,0,1,1,1.341,1.224.908.908,0,0,1-1.341-1.224Z"
            transform="translate(-1255.727 -535.59)" />
        <path class="a" d="M1276.537,543.464a.911.911,0,1,1,.822,1.62.908.908,0,0,1-.822-1.62Z"
            transform="translate(-1257.48 -537.914)" />
        <path class="a"
            d="M1245.882,544.822l-.162.339a.075.075,0,0,1-.1.029l-1.556-.722a.079.079,0,0,1-.035-.107l.2-.41a.077.077,0,0,1,.1-.037l1.512.81A.078.078,0,0,1,1245.882,544.822Z"
            transform="translate(-1243.036 -538.175)" />
        <path class="a"
            d="M1261.7,535.365a2.033,2.033,0,0,0-.376,0,.072.072,0,0,1-.071-.074l-.049-1.716a.082.082,0,0,1,.08-.081,2.86,2.86,0,0,1,.454,0,.082.082,0,0,1,.081.081l-.049,1.716A.072.072,0,0,1,1261.7,535.365Z"
            transform="translate(-1250.781 -533.484)" />
        <path class="a"
            d="M1267.611,536.559l-.353-.129a.075.075,0,0,1-.038-.1l.574-1.618a.079.079,0,0,1,.1-.045l.427.157a.077.077,0,0,1,.048.1l-.667,1.582A.079.079,0,0,1,1267.611,536.559Z"
            transform="translate(-1253.49 -534.016)" />
    </g>
    <g transform="translate(30.589 30.594)">
        <g transform="translate(16.127 11.833)">
            <path class="a"
                d="M1275.588,574.9a.894.894,0,0,1-.282,1.3.9.9,0,0,1-1.272-.356.947.947,0,0,1,.311-1.251A.959.959,0,0,1,1275.588,574.9Z"
                transform="translate(-1267.687 -558.858)" />
            <path class="a"
                d="M1269.651,577.755a.9.9,0,0,1-.595,1.176.889.889,0,0,1-1.148-.66.966.966,0,0,1,.607-1.132A.951.951,0,0,1,1269.651,577.755Z"
                transform="translate(-1264.965 -560.039)" />
            <path class="a"
                d="M1287.109,546.1a.91.91,0,1,1,.353,1.784.975.975,0,0,1-1.078-.707A.964.964,0,0,1,1287.109,546.1Z"
                transform="translate(-1273.295 -546.065)" />
            <path class="a" d="M1286.968,559.214a.91.91,0,1,1-.533,1.738.909.909,0,1,1,.533-1.738Z"
                transform="translate(-1273.038 -551.974)" />
            <path class="a" d="M1284.5,565.327a.911.911,0,1,1-.926,1.565.909.909,0,0,1,.926-1.565Z"
                transform="translate(-1271.839 -554.688)" />
            <path class="a"
                d="M1286.877,554.223a2.863,2.863,0,0,0,.024-.388.071.071,0,0,1,.077-.069l1.714.044a.082.082,0,0,1,.078.083,3.671,3.671,0,0,1-.026.441.081.081,0,0,1-.085.075l-1.712-.11A.074.074,0,0,1,1286.877,554.223Z"
                transform="translate(-1273.525 -549.532)" />
            <path class="a"
                d="M1279.3,570.883l.268-.282a.076.076,0,0,1,.106,0l1.238,1.188a.078.078,0,0,1,0,.112l-.3.319a.076.076,0,0,1-.11,0l-1.191-1.235A.079.079,0,0,1,1279.3,570.883Z"
                transform="translate(-1270.103 -557.103)" />
            <path class="a"
                d="M1262.64,578.229c.129-.005.26.006.388-.012a.071.071,0,0,1,.076.07l.122,1.712a.083.083,0,0,1-.075.086c-.146.019-.294.008-.441.014a.081.081,0,0,1-.083-.077l-.057-1.716A.072.072,0,0,1,1262.64,578.229Z"
                transform="translate(-1262.572 -560.542)" />
        </g>
        <g transform="translate(0 8.319)">
            <path class="a" d="M1234.186,553.7a.91.91,0,1,1-.038-1.818.909.909,0,1,1,.038,1.818Z"
                transform="translate(-1233.214 -545.168)" />
            <path class="a" d="M1234.665,547.111a.909.909,0,1,1,1.08-.68A.925.925,0,0,1,1234.665,547.111Z"
                transform="translate(-1233.526 -542.208)" />
            <path class="a" d="M1253.364,578.073a.91.91,0,1,1-1.721-.581.908.908,0,0,1,1.721.581Z"
                transform="translate(-1241.488 -556.428)" />
            <path class="a" d="M1242.093,571.4a.908.908,0,1,1,.027-1.274A.921.921,0,0,1,1242.093,571.4Z"
                transform="translate(-1236.505 -553.261)" />
            <path class="a" d="M1238,566.235a.91.91,0,1,1-.878-1.591.909.909,0,1,1,.878,1.591Z"
                transform="translate(-1234.738 -550.874)" />
            <path class="a"
                d="M1247.042,574.081l.327.21a.076.076,0,0,1,.019.1l-.9,1.463a.077.077,0,0,1-.108.023l-.372-.239a.077.077,0,0,1-.024-.108l.951-1.428A.076.076,0,0,1,1247.042,574.081Z"
                transform="translate(-1238.965 -555.161)" />
            <path class="a"
                d="M1235.89,559.244a2.2,2.2,0,0,0,.1.376.071.071,0,0,1-.052.089l-1.648.477a.082.082,0,0,1-.1-.055,2.714,2.714,0,0,1-.114-.426.081.081,0,0,1,.058-.1l1.665-.415A.072.072,0,0,1,1235.89,559.244Z"
                transform="translate(-1233.602 -548.461)" />
            <path class="a"
                d="M1238.005,540.593l-.178.346a.076.076,0,0,1-.1.029l-1.542-.753a.077.077,0,0,1-.034-.106l.2-.393a.078.078,0,0,1,.105-.035l1.512.811A.076.076,0,0,1,1238.005,540.593Z"
                transform="translate(-1234.533 -539.674)" />
        </g>
        <g transform="translate(4.969)">
            <path class="a" d="M1273.264,528.449a.91.91,0,1,1,1.585.889.909.909,0,0,1-1.585-.889Z"
                transform="translate(-1256.188 -526.069)" />
            <path class="a" d="M1278.721,532.15a.91.91,0,1,1,1.332,1.236.909.909,0,1,1-1.332-1.236Z"
                transform="translate(-1258.59 -527.815)" />
            <path class="a" d="M1242.534,532.848a.91.91,0,1,1,1.351-1.217.909.909,0,1,1-1.351,1.217Z"
                transform="translate(-1242.26 -527.579)" />
            <path class="a"
                d="M1253.966,526.442a.89.89,0,0,1,.662-1.147.9.9,0,0,1,1.1.72.953.953,0,0,1-.674,1.1A.965.965,0,0,1,1253.966,526.442Z"
                transform="translate(-1247.517 -524.87)" />
            <path class="a"
                d="M1260.5,525.487a.9.9,0,0,1,.922-.946.894.894,0,0,1,.894.981.96.96,0,0,1-.92.892A.946.946,0,0,1,1260.5,525.487Z"
                transform="translate(-1250.48 -524.54)" />
            <path class="a"
                d="M1249.455,529.21l-.339.19a.073.073,0,0,1-.1-.034l-.817-1.509a.081.081,0,0,1,.033-.108l.386-.215a.084.084,0,0,1,.108.037l.758,1.54A.071.071,0,0,1,1249.455,529.21Z"
                transform="translate(-1244.933 -525.885)" />
            <path class="a"
                d="M1268.244,527.32l-.373-.109a.079.079,0,0,1-.05-.1l.413-1.666a.076.076,0,0,1,.1-.053l.424.123a.08.08,0,0,1,.056.1l-.476,1.649A.074.074,0,0,1,1268.244,527.32Z"
                transform="translate(-1253.778 -524.924)" />
            <path class="a"
                d="M1282.893,538.568l-.22-.321a.072.072,0,0,1,.023-.1l1.422-.961a.08.08,0,0,1,.11.022l.25.365a.083.083,0,0,1-.027.111l-1.457.9A.07.07,0,0,1,1282.893,538.568Z"
                transform="translate(-1260.467 -530.228)" />
        </g>
    </g>
    <g transform="translate(25.697 25.704)">
        <g transform="translate(24.677 20.591)">
            <path class="a"
                d="M1296.793,553.1a.884.884,0,0,1,.888.951.894.894,0,0,1-.98.866.956.956,0,0,1-.888-.952A.966.966,0,0,1,1296.793,553.1Z"
                transform="translate(-1281.21 -553.101)" />
            <path class="a"
                d="M1294.1,565.982a.9.9,0,0,1,.515,1.221.936.936,0,0,1-1.711-.757A.946.946,0,0,1,1294.1,565.982Z"
                transform="translate(-1279.865 -558.871)" />
            <path class="a" d="M1291.039,571.826a.909.909,0,1,1-1.255.24A.923.923,0,0,1,1291.039,571.826Z"
                transform="translate(-1278.42 -561.466)" />
            <path class="a"
                d="M1276.305,584.708a.924.924,0,0,1-.441,1.251.9.9,0,0,1-1.22-.515.948.948,0,0,1,.463-1.2A.923.923,0,0,1,1276.305,584.708Z"
                transform="translate(-1271.641 -567.088)" />
            <path class="a"
                d="M1294.869,560.9l.1-.383a.079.079,0,0,1,.094-.053l1.676.367a.076.076,0,0,1,.056.094l-.108.422a.079.079,0,0,1-.1.058l-1.664-.416A.075.075,0,0,1,1294.869,560.9Z"
                transform="translate(-1280.784 -556.415)" />
            <path class="a"
                d="M1285.613,577.23a2.445,2.445,0,0,0,.28-.279.072.072,0,0,1,.1,0l1.23,1.2a.082.082,0,0,1,0,.113,2.832,2.832,0,0,1-.307.308.082.082,0,0,1-.113,0l-1.2-1.231A.073.073,0,0,1,1285.613,577.23Z"
                transform="translate(-1276.604 -563.83)" />
            <path class="a"
                d="M1280.726,581.26l.32-.233a.072.072,0,0,1,.1.02l.991,1.4a.081.081,0,0,1-.019.111l-.352.255a.082.082,0,0,1-.111-.023l-.95-1.429A.072.072,0,0,1,1280.726,581.26Z"
                transform="translate(-1274.396 -565.669)" />
            <path class="a"
                d="M1269.285,586.278l.383-.1a.075.075,0,0,1,.089.058l.421,1.664a.079.079,0,0,1-.058.1l-.421.108a.076.076,0,0,1-.094-.057l-.373-1.676A.078.078,0,0,1,1269.285,586.278Z"
                transform="translate(-1269.23 -567.994)" />
        </g>
        <g transform="translate(0.477 24.696)">
            <path class="a"
                d="M1260.27,588.131a.885.885,0,0,1-.951.89.9.9,0,0,1-.865-.981.955.955,0,0,1,.951-.889A.968.968,0,0,1,1260.27,588.131Z"
                transform="translate(-1240.171 -572.537)" />
            <path class="a"
                d="M1247.384,585.444a.9.9,0,0,1-1.221.515.937.937,0,0,1,.756-1.713A.947.947,0,0,1,1247.384,585.444Z"
                transform="translate(-1234.391 -571.193)" />
            <path class="a"
                d="M1241.534,582.377a.922.922,0,0,1-1.3.288.932.932,0,0,1-.2-1.317.913.913,0,0,1,1.258-.227A.924.924,0,0,1,1241.534,582.377Z"
                transform="translate(-1231.788 -569.75)" />
            <path class="a"
                d="M1228.615,567.644a.922.922,0,0,1-1.25-.441.9.9,0,0,1,.514-1.221.946.946,0,0,1,1.2.464A.924.924,0,0,1,1228.615,567.644Z"
                transform="translate(-1226.124 -562.976)" />
            <path class="a"
                d="M1253.189,586.207l.383.1a.079.079,0,0,1,.053.094l-.367,1.677a.076.076,0,0,1-.093.057l-.422-.108a.079.079,0,0,1-.058-.1l.416-1.666A.073.073,0,0,1,1253.189,586.207Z"
                transform="translate(-1237.573 -572.111)" />
            <path class="a"
                d="M1236.273,576.951a2.4,2.4,0,0,0,.279.279.072.072,0,0,1,0,.1l-1.2,1.231a.082.082,0,0,1-.113,0,2.887,2.887,0,0,1-.307-.308.082.082,0,0,1,0-.113l1.231-1.2A.072.072,0,0,1,1236.273,576.951Z"
                transform="translate(-1229.565 -567.935)" />
            <path class="a"
                d="M1232.118,572.063l.233.32a.073.073,0,0,1-.021.1l-1.4.991a.08.08,0,0,1-.111-.018l-.255-.352a.083.083,0,0,1,.024-.111l1.428-.951A.071.071,0,0,1,1232.118,572.063Z"
                transform="translate(-1227.599 -565.729)" />
            <path class="a"
                d="M1227,560.623l.1.383a.074.074,0,0,1-.057.089l-1.663.421a.078.078,0,0,1-.1-.057l-.108-.422a.075.075,0,0,1,.056-.094l1.675-.373A.078.078,0,0,1,1227,560.623Z"
                transform="translate(-1225.177 -560.568)" />
        </g>
        <g transform="translate(0 0.477)">
            <path class="a"
                d="M1225.2,551.609a.884.884,0,0,1-.888-.952.893.893,0,0,1,.98-.866.956.956,0,0,1,.889.951A.968.968,0,0,1,1225.2,551.609Z"
                transform="translate(-1224.309 -531.495)" />
            <path class="a"
                d="M1227.88,538.723a.9.9,0,0,1-.514-1.221.936.936,0,0,1,1.711.757A.946.946,0,0,1,1227.88,538.723Z"
                transform="translate(-1225.647 -525.721)" />
            <path class="a" d="M1230.961,532.873a.909.909,0,1,1,1.255-.24A.923.923,0,0,1,1230.961,532.873Z"
                transform="translate(-1227.107 -523.12)" />
            <path class="a"
                d="M1245.723,519.954a.923.923,0,0,1,.441-1.251.9.9,0,0,1,1.221.515.948.948,0,0,1-.464,1.2A.923.923,0,0,1,1245.723,519.954Z"
                transform="translate(-1233.915 -517.46)" />
            <path class="a"
                d="M1227.074,544.528l-.1.383a.079.079,0,0,1-.094.053l-1.675-.367a.075.075,0,0,1-.057-.094l.108-.422a.078.078,0,0,1,.094-.058l1.665.416A.074.074,0,0,1,1227.074,544.528Z"
                transform="translate(-1224.686 -528.899)" />
            <path class="a"
                d="M1236.552,527.611a2.356,2.356,0,0,0-.279.28.072.072,0,0,1-.1,0l-1.231-1.2a.082.082,0,0,1,0-.113,2.838,2.838,0,0,1,.307-.307.081.081,0,0,1,.113,0l1.2,1.232A.072.072,0,0,1,1236.552,527.611Z"
                transform="translate(-1229.088 -520.898)" />
            <path class="a"
                d="M1241.6,523.457l-.319.233a.073.073,0,0,1-.1-.02l-.991-1.4a.08.08,0,0,1,.019-.11l.352-.255a.083.083,0,0,1,.111.024l.95,1.429A.071.071,0,0,1,1241.6,523.457Z"
                transform="translate(-1231.46 -518.934)" />
            <path class="a"
                d="M1253.462,518.342l-.383.1a.074.074,0,0,1-.089-.058l-.421-1.664a.079.079,0,0,1,.058-.1l.422-.108a.076.076,0,0,1,.094.057l.373,1.675A.079.079,0,0,1,1253.462,518.342Z"
                transform="translate(-1237.044 -516.514)" />
        </g>
        <g transform="translate(20.575)">
            <path class="a"
                d="M1261.763,516.536a.885.885,0,0,1,.951-.89.9.9,0,0,1,.865.981.955.955,0,0,1-.951.889A.967.967,0,0,1,1261.763,516.536Z"
                transform="translate(-1261.763 -515.646)" />
            <path class="a"
                d="M1274.644,519.218a.9.9,0,0,1,1.22-.515.936.936,0,0,1-.756,1.713A.949.949,0,0,1,1274.644,519.218Z"
                transform="translate(-1267.538 -516.983)" />
            <path class="a"
                d="M1280.489,522.3a.922.922,0,0,1,1.3-.288.933.933,0,0,1,.2,1.317.912.912,0,0,1-1.257.227A.923.923,0,0,1,1280.489,522.3Z"
                transform="translate(-1270.136 -518.442)" />
            <path class="a"
                d="M1293.369,537.061a.922.922,0,0,1,1.25.441.9.9,0,0,1-.515,1.221.946.946,0,0,1-1.2-.464A.923.923,0,0,1,1293.369,537.061Z"
                transform="translate(-1275.763 -525.244)" />
            <path class="a"
                d="M1269.562,518.413l-.383-.1a.078.078,0,0,1-.053-.094l.367-1.677a.075.075,0,0,1,.093-.056l.421.108a.079.079,0,0,1,.058.1l-.416,1.666A.074.074,0,0,1,1269.562,518.413Z"
                transform="translate(-1265.081 -516.023)" />
            <path class="a"
                d="M1285.893,527.891a2.4,2.4,0,0,0-.28-.28.072.072,0,0,1,0-.1l1.2-1.232a.082.082,0,0,1,.113,0,2.785,2.785,0,0,1,.307.307.082.082,0,0,1,0,.113l-1.23,1.2A.072.072,0,0,1,1285.893,527.891Z"
                transform="translate(-1272.502 -520.421)" />
            <path class="a"
                d="M1289.922,532.942l-.232-.32a.073.073,0,0,1,.02-.1l1.4-.991a.081.081,0,0,1,.111.018l.255.352a.082.082,0,0,1-.024.111l-1.428.951A.071.071,0,0,1,1289.922,532.942Z"
                transform="translate(-1274.342 -522.79)" />
            <path class="a"
                d="M1294.941,544.8l-.1-.383a.075.075,0,0,1,.057-.089l1.663-.421a.08.08,0,0,1,.1.058l.107.422a.075.075,0,0,1-.056.094l-1.674.373A.078.078,0,0,1,1294.941,544.8Z"
                transform="translate(-1276.67 -528.37)" />
        </g>
    </g>
    <g transform="translate(20.528 20.532)">
        <g transform="translate(21.907 34.579)">
            <path class="a" d="M1272.169,595.427a1.166,1.166,0,0,1-.826,1.445,1.171,1.171,0,1,1,.826-1.445Z"
                transform="translate(-1261.61 -580.583)" />
            <path class="a"
                d="M1264.022,596.779a1.154,1.154,0,0,1-1.079,1.259,1.129,1.129,0,0,1-1.189-1.152,1.183,1.183,0,0,1,1.081-1.186A1.154,1.154,0,0,1,1264.022,596.779Z"
                transform="translate(-1257.921 -581.096)" />
            <path class="a"
                d="M1302.2,569.222a1.138,1.138,0,1,1-.928,2.077,1.2,1.2,0,0,1-.606-1.511A1.209,1.209,0,0,1,1302.2,569.222Z"
                transform="translate(-1275.417 -569.138)" />
            <path class="a"
                d="M1293.251,583.005a1.13,1.13,0,0,1,.049,1.656,1.17,1.17,0,0,1-1.653-1.656A1.182,1.182,0,0,1,1293.251,583.005Z"
                transform="translate(-1271.246 -575.24)" />
            <path class="a" d="M1287.035,588.424a1.135,1.135,0,1,1-1.571-.287A1.154,1.154,0,0,1,1287.035,588.424Z"
                transform="translate(-1268.387 -577.605)" />
            <path class="a"
                d="M1296.651,577.208l.288-.4a.1.1,0,0,1,.133-.019l1.787,1.186a.094.094,0,0,1,.024.135l-.316.443a.1.1,0,0,1-.137.025l-1.752-1.237A.094.094,0,0,1,1296.651,577.208Z"
                transform="translate(-1273.641 -572.574)" />
            <path class="a"
                d="M1278.524,592.124a2.946,2.946,0,0,0,.451-.2.09.09,0,0,1,.121.048l.894,1.951a.1.1,0,0,1-.048.133,3.534,3.534,0,0,1-.5.219.1.1,0,0,1-.13-.054l-.837-1.976A.089.089,0,0,1,1278.524,592.124Z"
                transform="translate(-1265.454 -579.394)" />
            <path class="a"
                d="M1255.2,595.284l.491.058a.094.094,0,0,1,.077.107l-.261,2.13a.1.1,0,0,1-.111.085l-.54-.064a.094.094,0,0,1-.083-.108l.322-2.121A.1.1,0,0,1,1255.2,595.284Z"
                transform="translate(-1254.777 -580.91)" />
        </g>
        <g transform="translate(0 21.923)">
            <path class="a" d="M1217.514,563.508a1.136,1.136,0,1,1,.833-1.364A1.143,1.143,0,0,1,1217.514,563.508Z"
                transform="translate(-1215.413 -552.941)" />
            <path class="a"
                d="M1216.162,555.361a1.154,1.154,0,0,1-1.258-1.079,1.129,1.129,0,0,1,1.151-1.191,1.182,1.182,0,0,1,1.185,1.082A1.153,1.153,0,0,1,1216.162,555.361Z"
                transform="translate(-1214.899 -549.256)" />
            <path class="a"
                d="M1243.77,593.536a1.1,1.1,0,0,1-1.509.606,1.118,1.118,0,0,1-.566-1.534A1.194,1.194,0,0,1,1243.2,592,1.21,1.21,0,0,1,1243.77,593.536Z"
                transform="translate(-1226.92 -566.736)" />
            <path class="a"
                d="M1229.977,584.589a1.128,1.128,0,0,1-1.654.049,1.17,1.17,0,0,1,1.655-1.654A1.184,1.184,0,0,1,1229.977,584.589Z"
                transform="translate(-1220.802 -562.569)" />
            <path class="a"
                d="M1224.546,578.374a1.153,1.153,0,0,1-1.644-.252,1.166,1.166,0,0,1,.363-1.625,1.14,1.14,0,0,1,1.568.3A1.155,1.155,0,0,1,1224.546,578.374Z"
                transform="translate(-1218.422 -559.712)" />
            <path class="a"
                d="M1236.162,587.989l.4.288a.1.1,0,0,1,.019.133L1235.4,590.2a.1.1,0,0,1-.135.024l-.443-.317a.1.1,0,0,1-.024-.137l1.236-1.753A.094.094,0,0,1,1236.162,587.989Z"
                transform="translate(-1223.858 -564.962)" />
            <path class="a"
                d="M1220.8,569.861a3.1,3.1,0,0,0,.2.452.09.09,0,0,1-.047.121l-1.949.895a.1.1,0,0,1-.132-.048,3.517,3.517,0,0,1-.219-.5.1.1,0,0,1,.054-.13l1.974-.838A.09.09,0,0,1,1220.8,569.861Z"
                transform="translate(-1216.586 -556.782)" />
            <path class="a"
                d="M1217.628,546.543l-.058.491a.093.093,0,0,1-.107.078l-2.129-.261a.1.1,0,0,1-.085-.111l.064-.54a.094.094,0,0,1,.108-.084l2.12.322A.1.1,0,0,1,1217.628,546.543Z"
                transform="translate(-1215.057 -546.115)" />
        </g>
        <g transform="translate(2.091)">
            <path class="a" d="M1249.49,508.853a1.136,1.136,0,1,1,1.363.833A1.14,1.14,0,0,1,1249.49,508.853Z"
                transform="translate(-1232.557 -506.751)" />
            <path class="a"
                d="M1257.639,507.5a1.153,1.153,0,0,1,1.078-1.259,1.129,1.129,0,0,1,1.189,1.152,1.183,1.183,0,0,1-1.081,1.186A1.153,1.153,0,0,1,1257.639,507.5Z"
                transform="translate(-1236.248 -506.237)" />
            <path class="a"
                d="M1219.416,535.11a1.106,1.106,0,0,1-.606-1.511,1.117,1.117,0,0,1,1.533-.566,1.2,1.2,0,0,1,.606,1.511A1.207,1.207,0,0,1,1219.416,535.11Z"
                transform="translate(-1218.705 -518.247)" />
            <path class="a"
                d="M1228.375,521.316a1.13,1.13,0,0,1-.049-1.656,1.17,1.17,0,0,1,1.652,1.656A1.182,1.182,0,0,1,1228.375,521.316Z"
                transform="translate(-1222.889 -512.134)" />
            <path class="a" d="M1234.609,515.884a1.136,1.136,0,1,1,1.571.287A1.154,1.154,0,0,1,1234.609,515.884Z"
                transform="translate(-1225.765 -509.756)" />
            <path class="a"
                d="M1225.015,527.5l-.288.4a.1.1,0,0,1-.134.019l-1.787-1.186a.094.094,0,0,1-.024-.134l.317-.443a.1.1,0,0,1,.137-.024l1.752,1.237A.094.094,0,0,1,1225.015,527.5Z"
                transform="translate(-1220.534 -515.188)" />
            <path class="a"
                d="M1243.749,512.139a2.951,2.951,0,0,0-.452.2.09.09,0,0,1-.121-.048l-.894-1.951a.1.1,0,0,1,.048-.133,3.51,3.51,0,0,1,.5-.219.1.1,0,0,1,.13.053l.837,1.976A.09.09,0,0,1,1243.749,512.139Z"
                transform="translate(-1229.326 -507.923)" />
            <path class="a"
                d="M1267.5,508.967l-.491-.058a.094.094,0,0,1-.078-.107l.261-2.13a.1.1,0,0,1,.11-.085l.541.065a.094.094,0,0,1,.083.108l-.323,2.121A.1.1,0,0,1,1267.5,508.967Z"
                transform="translate(-1240.44 -506.394)" />
        </g>
        <g transform="translate(34.554 2.092)">
            <path class="a" d="M1304.09,540.827a1.136,1.136,0,1,1-.833,1.364A1.143,1.143,0,0,1,1304.09,540.827Z"
                transform="translate(-1289.256 -523.882)" />
            <path class="a"
                d="M1305.441,548.976a1.152,1.152,0,0,1,1.257,1.08,1.128,1.128,0,0,1-1.15,1.19,1.182,1.182,0,0,1-1.185-1.082A1.154,1.154,0,0,1,1305.441,548.976Z"
                transform="translate(-1289.77 -527.57)" />
            <path class="a"
                d="M1277.885,510.753a1.1,1.1,0,0,1,1.51-.606,1.119,1.119,0,0,1,.565,1.535,1.194,1.194,0,0,1-1.509.606A1.21,1.21,0,0,1,1277.885,510.753Z"
                transform="translate(-1277.801 -510.042)" />
            <path class="a"
                d="M1291.668,519.713a1.128,1.128,0,0,1,1.655-.048,1.17,1.17,0,0,1-1.655,1.654A1.184,1.184,0,0,1,1291.668,519.713Z"
                transform="translate(-1283.909 -514.222)" />
            <path class="a"
                d="M1297.085,525.946a1.153,1.153,0,0,1,1.644.252,1.166,1.166,0,0,1-.363,1.624,1.14,1.14,0,0,1-1.568-.3A1.155,1.155,0,0,1,1297.085,525.946Z"
                transform="translate(-1286.276 -517.096)" />
            <path class="a"
                d="M1285.87,516.354l-.4-.288a.1.1,0,0,1-.02-.134l1.185-1.788a.094.094,0,0,1,.135-.024l.442.316a.1.1,0,0,1,.025.137L1286,516.328A.093.093,0,0,1,1285.87,516.354Z"
                transform="translate(-1281.239 -511.87)" />
            <path class="a"
                d="M1300.787,535.087a2.96,2.96,0,0,0-.2-.452.091.091,0,0,1,.048-.121l1.949-.894a.1.1,0,0,1,.133.048,3.579,3.579,0,0,1,.219.5.1.1,0,0,1-.054.13l-1.974.838A.09.09,0,0,1,1300.787,535.087Z"
                transform="translate(-1288.066 -520.654)" />
            <path class="a"
                d="M1303.947,558.842l.058-.492a.093.093,0,0,1,.107-.077l2.128.261a.1.1,0,0,1,.084.11l-.064.54a.1.1,0,0,1-.108.084l-2.12-.323A.1.1,0,0,1,1303.947,558.842Z"
                transform="translate(-1289.583 -531.758)" />
        </g>
    </g>
    <g transform="translate(16.415 16.438)">
        <g transform="translate(35.449 37.4)">
            <path class="a"
                d="M1310.928,566.869a1.067,1.067,0,0,1,.784,1.358,1.1,1.1,0,0,1-1.447.658,1.139,1.139,0,0,1-.784-1.358A1.179,1.179,0,0,1,1310.928,566.869Z"
                transform="translate(-1288.839 -566.822)" />
            <path class="a"
                d="M1304.519,580.828a1.065,1.065,0,0,1,.365,1.535,1.106,1.106,0,0,1-1.579.2,1.133,1.133,0,0,1-.351-1.526A1.181,1.181,0,0,1,1304.519,580.828Z"
                transform="translate(-1285.842 -573.039)" />
            <path class="a"
                d="M1294.318,592.282a1.069,1.069,0,0,1-.1,1.569,1.1,1.1,0,0,1-1.567-.262,1.141,1.141,0,0,1,.107-1.566A1.177,1.177,0,0,1,1294.318,592.282Z"
                transform="translate(-1281.157 -578.081)" />
            <path class="a"
                d="M1281.2,600.25a1.079,1.079,0,0,1-.553,1.476,1.091,1.091,0,0,1-1.421-.7,1.152,1.152,0,0,1,.553-1.475A1.167,1.167,0,0,1,1281.2,600.25Z"
                transform="translate(-1275.192 -581.531)" />
            <path class="a"
                d="M1274.027,602.668a1.141,1.141,0,0,1-.748,1.429,1.127,1.127,0,0,1-1.312-.933,1.11,1.11,0,0,1,.768-1.343A1.1,1.1,0,0,1,1274.027,602.668Z"
                transform="translate(-1271.942 -582.566)" />
            <path class="a"
                d="M1306.637,574.992l.188-.425a.089.089,0,0,1,.123-.036l1.94.913a.1.1,0,0,1,.051.125l-.206.461a.089.089,0,0,1-.124.04l-1.919-.958A.1.1,0,0,1,1306.637,574.992Z"
                transform="translate(-1287.575 -570.289)" />
            <path class="a"
                d="M1298.2,587.179l.3-.351a.089.089,0,0,1,.127,0l1.588,1.443a.1.1,0,0,1,.012.135l-.332.38a.09.09,0,0,1-.131,0l-1.554-1.479A.1.1,0,0,1,1298.2,587.179Z"
                transform="translate(-1283.765 -575.818)" />
            <path class="a"
                d="M1286.578,596.408l.392-.25a.088.088,0,0,1,.121.038l1.1,1.842a.1.1,0,0,1-.028.132l-.426.27a.1.1,0,0,1-.128-.041l-1.057-1.867A.09.09,0,0,1,1286.578,596.408Z"
                transform="translate(-1278.519 -580.026)" />
        </g>
        <g transform="translate(4.228 43.741)">
            <path class="a"
                d="M1262.463,604.333a1.069,1.069,0,0,1-1.048,1.188,1.176,1.176,0,0,1-.022-2.34A1.179,1.179,0,0,1,1262.463,604.333Z"
                transform="translate(-1235.494 -589.535)" />
            <path class="a"
                d="M1247.181,602.511a1.082,1.082,0,0,1-1.351.843,1.127,1.127,0,0,1-.678-1.455,1.112,1.112,0,0,1,1.336-.791A1.162,1.162,0,0,1,1247.181,602.511Z"
                transform="translate(-1228.618 -588.581)" />
            <path class="a"
                d="M1233.074,596.364a1.1,1.1,0,0,1-1.544.422,1.132,1.132,0,0,1-.222-1.593,1.105,1.105,0,0,1,1.506-.362A1.142,1.142,0,0,1,1233.074,596.364Z"
                transform="translate(-1222.305 -585.7)" />
            <path class="a"
                d="M1221.382,586.376a1.087,1.087,0,0,1-1.594-.054,1.127,1.127,0,0,1,.249-1.585,1.114,1.114,0,0,1,1.551.091A1.157,1.157,0,0,1,1221.382,586.376Z"
                transform="translate(-1217.117 -581.109)" />
            <path class="a"
                d="M1216.836,580.323a1.106,1.106,0,0,1-1.567-.286,1.069,1.069,0,0,1,.446-1.515,1.179,1.179,0,0,1,1.551.3A1.133,1.133,0,0,1,1216.836,580.323Z"
                transform="translate(-1215.108 -578.358)" />
            <path class="a"
                d="M1254.108,602.647l.461.053a.09.09,0,0,1,.072.106l-.273,2.129a.1.1,0,0,1-.1.086l-.5-.059a.091.091,0,0,1-.077-.107l.323-2.121A.1.1,0,0,1,1254.108,602.647Z"
                transform="translate(-1232.494 -589.294)" />
            <path class="a"
                d="M1239.471,598.35l.424.189a.091.091,0,0,1,.037.123l-.876,1.958a.1.1,0,0,1-.124.052l-.46-.206a.092.092,0,0,1-.042-.125l.921-1.937A.1.1,0,0,1,1239.471,598.35Z"
                transform="translate(-1225.614 -587.357)" />
            <path class="a"
                d="M1226.759,590.14l.35.3a.092.092,0,0,1,0,.129l-1.411,1.615a.1.1,0,0,1-.134.013l-.38-.331a.092.092,0,0,1,0-.132l1.449-1.582A.1.1,0,0,1,1226.759,590.14Z"
                transform="translate(-1219.636 -583.655)" />
        </g>
        <g transform="translate(0 10.066)">
            <path class="a" d="M1211.674,569.839a1.07,1.07,0,1,1-.675-2.01,1.062,1.062,0,1,1,.675,2.01Z"
                transform="translate(-1208.641 -539.919)" />
            <path class="a"
                d="M1208.651,554.766a1.124,1.124,0,0,1-1.24-1.026,1.139,1.139,0,0,1,1.185-1.093,1.1,1.1,0,0,1,1.153,1.028A1.115,1.115,0,0,1,1208.651,554.766Z"
                transform="translate(-1207.411 -533.106)" />
            <path class="a" d="M1210.2,539.456a1.071,1.071,0,1,1,.56-2.045,1.061,1.061,0,1,1-.56,2.045Z"
                transform="translate(-1208.251 -526.22)" />
            <path class="a"
                d="M1216.133,525.236a1.141,1.141,0,0,1-.463-1.546,1.175,1.175,0,0,1,1.978,1.248A1.1,1.1,0,0,1,1216.133,525.236Z"
                transform="translate(-1211.069 -519.857)" />
            <path class="a"
                d="M1220.49,519.023a1.076,1.076,0,0,1-.191-1.562,1.093,1.093,0,0,1,1.584-.039,1.151,1.151,0,0,1,.191,1.562A1.17,1.17,0,0,1,1220.49,519.023Z"
                transform="translate(-1213.105 -517.102)" />
            <path class="a"
                d="M1210.5,561.4l.084.457a.093.093,0,0,1-.08.1l-2.106.4a.094.094,0,0,1-.112-.072l-.091-.5a.092.092,0,0,1,.079-.106l2.115-.353A.093.093,0,0,1,1210.5,561.4Z"
                transform="translate(-1207.763 -537.015)" />
            <path class="a"
                d="M1210.159,546.4l-.054.462a.093.093,0,0,1-.106.074l-2.132-.234a.093.093,0,0,1-.086-.1l.058-.5a.093.093,0,0,1,.107-.079l2.126.283A.094.094,0,0,1,1210.159,546.4Z"
                transform="translate(-1207.578 -530.122)" />
            <path class="a"
                d="M1214.208,531.686l-.189.424a.092.092,0,0,1-.124.039l-1.973-.84a.094.094,0,0,1-.052-.122l.205-.461a.094.094,0,0,1,.126-.043l1.954.886A.093.093,0,0,1,1214.208,531.686Z"
                transform="translate(-1209.417 -523.213)" />
        </g>
        <g transform="translate(11.671)">
            <path class="a"
                d="M1228.925,510.876a1.117,1.117,0,0,1,.141-1.593,1.071,1.071,0,0,1,1.553.318,1.176,1.176,0,0,1-.161,1.563A1.124,1.124,0,0,1,1228.925,510.876Z"
                transform="translate(-1228.657 -503.419)" />
            <path class="a"
                d="M1242.362,503.342a1.126,1.126,0,0,1,.594-1.491,1.088,1.088,0,0,1,1.4.767,1.156,1.156,0,0,1-.611,1.438A1.114,1.114,0,0,1,1242.362,503.342Z"
                transform="translate(-1234.793 -500.136)" />
            <path class="a"
                d="M1257.4,500.053a1.131,1.131,0,0,1,1-1.257,1.1,1.1,0,0,1,1.114,1.15,1.142,1.142,0,0,1-1.005,1.187A1.107,1.107,0,0,1,1257.4,500.053Z"
                transform="translate(-1241.606 -498.791)" />
            <path class="a"
                d="M1272.718,501.326a1.125,1.125,0,0,1,1.324-.905,1.082,1.082,0,0,1,.733,1.414,1.161,1.161,0,0,1-1.31.854A1.113,1.113,0,0,1,1272.718,501.326Z"
                transform="translate(-1248.501 -499.513)" />
            <path class="a"
                d="M1279.961,503.543a1.069,1.069,0,0,1,1.43-.683,1.176,1.176,0,0,1-.9,2.162A1.179,1.179,0,0,1,1279.961,503.543Z"
                transform="translate(-1251.742 -500.581)" />
            <path class="a"
                d="M1237.27,507.032l-.414.211a.1.1,0,0,1-.123-.047l-1.032-1.881a.092.092,0,0,1,.035-.127l.449-.229a.1.1,0,0,1,.126.044l.988,1.9A.091.091,0,0,1,1237.27,507.032Z"
                transform="translate(-1231.826 -501.563)" />
            <path class="a"
                d="M1251.677,502.012l-.457.083a.1.1,0,0,1-.1-.08l-.44-2.1a.091.091,0,0,1,.07-.112l.5-.091a.094.094,0,0,1,.108.079l.392,2.11A.092.092,0,0,1,1251.677,502.012Z"
                transform="translate(-1238.58 -499.205)" />
            <path class="a"
                d="M1266.792,501.388l-.462-.054a.094.094,0,0,1-.075-.107l.194-2.137a.091.091,0,0,1,.1-.086l.5.058a.1.1,0,0,1,.08.107l-.243,2.133A.092.092,0,0,1,1266.792,501.388Z"
                transform="translate(-1245.601 -498.886)" />
        </g>
        <g transform="translate(45.403 5.332)">
            <path class="a" d="M1290.279,509.021a1.066,1.066,0,1,1,1.728,1.23,1.066,1.066,0,1,1-1.728-1.23Z"
                transform="translate(-1290.062 -508.49)" />
            <path class="a"
                d="M1301.532,519.491a1.09,1.09,0,0,1,1.578.124,1.078,1.078,0,0,1-.276,1.551,1.165,1.165,0,0,1-1.578-.124A1.152,1.152,0,0,1,1301.532,519.491Z"
                transform="translate(-1295.019 -513.318)" />
            <path class="a"
                d="M1309.259,532.8a1.1,1.1,0,0,1,1.482.573,1.069,1.069,0,0,1-.71,1.4,1.178,1.178,0,0,1-1.477-.576A1.14,1.14,0,0,1,1309.259,532.8Z"
                transform="translate(-1298.367 -519.389)" />
            <path class="a"
                d="M1312.81,547.77a1.107,1.107,0,0,1,1.255.981,1.065,1.065,0,0,1-1.1,1.134,1.182,1.182,0,0,1-1.238-.982A1.133,1.133,0,0,1,1312.81,547.77Z"
                transform="translate(-1299.826 -526.173)" />
            <path class="a"
                d="M1312.917,555.35a1.09,1.09,0,0,1,1.1,1.153,1.128,1.128,0,0,1-1.289.959,1.109,1.109,0,0,1-1.043-1.149A1.154,1.154,0,0,1,1312.917,555.35Z"
                transform="translate(-1299.806 -529.589)" />
            <path class="a"
                d="M1296.52,515.622a3.206,3.206,0,0,0-.33-.326.088.088,0,0,1,0-.127l1.471-1.561a.1.1,0,0,1,.136-.01,3.74,3.74,0,0,1,.359.353.1.1,0,0,1-.005.136l-1.506,1.527A.088.088,0,0,1,1296.52,515.622Z"
                transform="translate(-1292.812 -510.78)" />
            <path class="a"
                d="M1305.527,527.754l-.21-.415a.091.091,0,0,1,.041-.121l1.86-1.067a.1.1,0,0,1,.131.03l.229.449a.1.1,0,0,1-.044.128l-1.885,1.024A.088.088,0,0,1,1305.527,527.754Z"
                transform="translate(-1296.932 -516.436)" />
            <path class="a"
                d="M1310.731,542.071l-.083-.457a.1.1,0,0,1,.08-.1l2.09-.48a.089.089,0,0,1,.111.069l.092.5a.1.1,0,0,1-.079.11l-2.1.432A.09.09,0,0,1,1310.731,542.071Z"
                transform="translate(-1299.339 -523.14)" />
        </g>
    </g>
    <g transform="translate(12.296 12.318)">
        <g transform="translate(48.542 33.977)">
            <path class="a"
                d="M1320.477,553.1a1.14,1.14,0,0,1,1.108,1.254,1.178,1.178,0,0,1-1.23,1.169,1.209,1.209,0,0,1-1.107-1.254A1.25,1.25,0,0,1,1320.477,553.1Z"
                transform="translate(-1302.235 -553.101)" />
            <path class="a"
                d="M1317.6,570.465a1.136,1.136,0,0,1,.708,1.527,1.181,1.181,0,0,1-1.522.758,1.2,1.2,0,0,1-.688-1.521A1.256,1.256,0,0,1,1317.6,570.465Z"
                transform="translate(-1300.785 -560.898)" />
            <path class="a"
                d="M1314.276,578.613a1.2,1.2,0,0,1,.51,1.635,1.159,1.159,0,0,1-1.621.519,1.229,1.229,0,0,1-.452-1.6A1.18,1.18,0,0,1,1314.276,578.613Z"
                transform="translate(-1299.234 -564.538)" />
            <path class="a"
                d="M1297.715,599.026a1.152,1.152,0,0,1-.265,1.66,1.165,1.165,0,0,1-1.677-.207,1.222,1.222,0,0,1,.266-1.66A1.237,1.237,0,0,1,1297.715,599.026Z"
                transform="translate(-1291.56 -573.579)" />
            <path class="a"
                d="M1290.521,603.861a1.22,1.22,0,0,1-.473,1.656,1.2,1.2,0,0,1-1.648-.486,1.178,1.178,0,0,1,.521-1.566A1.164,1.164,0,0,1,1290.521,603.861Z"
                transform="translate(-1288.278 -575.702)" />
            <path class="a"
                d="M1318.271,563.663l.08-.528a.1.1,0,0,1,.11-.079l2.113.368a.1.1,0,0,1,.08.12l-.087.567a.1.1,0,0,1-.111.084l-2.1-.417A.1.1,0,0,1,1318.271,563.663Z"
                transform="translate(-1301.794 -557.583)" />
            <path class="a"
                d="M1308.006,586.923l.32-.428a.1.1,0,0,1,.137-.021l1.749,1.242a.1.1,0,0,1,.017.14l-.343.46a.1.1,0,0,1-.14.026l-1.72-1.282A.1.1,0,0,1,1308.006,586.923Z"
                transform="translate(-1297.16 -568.119)" />
            <path class="a"
                d="M1302.5,593.443l.359-.4a.094.094,0,0,1,.135,0l1.547,1.486a.1.1,0,0,1,0,.145l-.386.424a.1.1,0,0,1-.143,0l-1.513-1.521A.1.1,0,0,1,1302.5,593.443Z"
                transform="translate(-1294.673 -571.073)" />
        </g>
        <g transform="translate(10.296 56.695)">
            <path class="a"
                d="M1278.271,609.218a1.138,1.138,0,0,1-.843,1.466,1.171,1.171,0,1,1-.639-2.251A1.253,1.253,0,0,1,1278.271,609.218Z"
                transform="translate(-1244.455 -600.718)" />
            <path class="a"
                d="M1260.877,611.81a1.154,1.154,0,0,1-1.232,1.17,1.2,1.2,0,0,1-1.189-1.231,1.18,1.18,0,0,1,1.232-1.109A1.237,1.237,0,0,1,1260.877,611.81Z"
                transform="translate(-1236.591 -601.726)" />
            <path class="a"
                d="M1252.08,611.168a1.176,1.176,0,0,1-1.391.971,1.14,1.14,0,0,1-1.005-1.339,1.25,1.25,0,0,1,1.39-.97A1.209,1.209,0,0,1,1252.08,611.168Z"
                transform="translate(-1232.628 -601.357)" />
            <path class="a"
                d="M1227.6,601.73a1.158,1.158,0,0,1-1.677.285,1.2,1.2,0,0,1-.3-1.685,1.181,1.181,0,0,1,1.641-.233A1.231,1.231,0,0,1,1227.6,601.73Z"
                transform="translate(-1221.696 -596.876)" />
            <path class="a"
                d="M1220.77,596.409a1.182,1.182,0,0,1-1.7.036,1.139,1.139,0,0,1-.08-1.683,1.253,1.253,0,0,1,1.684-.021A1.2,1.2,0,0,1,1220.77,596.409Z"
                transform="translate(-1218.656 -594.427)" />
            <path class="a"
                d="M1268.639,610.169l.527-.081a.1.1,0,0,1,.109.082l.3,2.125a.1.1,0,0,1-.089.112l-.567.086a.1.1,0,0,1-.115-.081l-.25-2.131A.1.1,0,0,1,1268.639,610.169Z"
                transform="translate(-1241.143 -601.478)" />
            <path class="a"
                d="M1242.847,607.69l.5.185a.1.1,0,0,1,.062.126l-.638,2.048a.1.1,0,0,1-.128.057l-.538-.2a.1.1,0,0,1-.068-.128l.686-2.034A.1.1,0,0,1,1242.847,607.69Z"
                transform="translate(-1229.191 -600.396)" />
            <path class="a"
                d="M1234.757,604.394l.481.232a.1.1,0,0,1,.045.13l-.935,1.931a.1.1,0,0,1-.136.042l-.517-.249a.1.1,0,0,1-.049-.132l.979-1.909A.1.1,0,0,1,1234.757,604.394Z"
                transform="translate(-1225.407 -598.91)" />
        </g>
        <g transform="translate(0 18.759)">
            <path class="a" d="M1211.943,586.381a1.212,1.212,0,1,1-1.35-2.012,1.216,1.216,0,0,1,1.35,2.012Z"
                transform="translate(-1204.484 -551.884)" />
            <path class="a"
                d="M1204.075,570.657a1.2,1.2,0,0,1-1.516-.8,1.218,1.218,0,0,1,.817-1.516,1.164,1.164,0,0,1,1.42.835A1.185,1.185,0,0,1,1204.075,570.657Z"
                transform="translate(-1201.087 -544.727)" />
            <path class="a"
                d="M1201.977,562.1a1.164,1.164,0,0,1-1.34-1.029,1.152,1.152,0,0,1,.974-1.37,1.237,1.237,0,0,1,1.34,1.028A1.224,1.224,0,0,1,1201.977,562.1Z"
                transform="translate(-1200.233 -540.853)" />
            <path class="a"
                d="M1203.376,535.883a1.218,1.218,0,0,1-.817-1.516,1.2,1.2,0,0,1,1.516-.8,1.185,1.185,0,0,1,.721,1.485A1.163,1.163,0,0,1,1203.376,535.883Z"
                transform="translate(-1201.087 -529.058)" />
            <path class="a"
                d="M1206.3,527.73a1.149,1.149,0,0,1-.531-1.593,1.167,1.167,0,0,1,1.583-.593,1.22,1.22,0,0,1,.531,1.593A1.241,1.241,0,0,1,1206.3,527.73Z"
                transform="translate(-1202.493 -525.42)" />
            <path class="a"
                d="M1207.83,577.307l.232.481a.1.1,0,0,1-.045.13l-1.925.944a.1.1,0,0,1-.132-.051l-.249-.517a.1.1,0,0,1,.043-.135l1.947-.9A.1.1,0,0,1,1207.83,577.307Z"
                transform="translate(-1202.521 -548.757)" />
            <path class="a"
                d="M1202.264,552.515a3.1,3.1,0,0,0,0,.534.093.093,0,0,1-.092.1l-2.145.024a.106.106,0,0,1-.1-.1,3.561,3.561,0,0,1,0-.573.106.106,0,0,1,.1-.1l2.145.024A.093.093,0,0,1,1202.264,552.515Z"
                transform="translate(-1199.914 -537.564)" />
            <path class="a"
                d="M1202.968,543.774l-.081.528a.1.1,0,0,1-.111.083l-2.125-.289a.1.1,0,0,1-.08-.117l.086-.567a.1.1,0,0,1,.112-.088l2.118.338A.1.1,0,0,1,1202.968,543.774Z"
                transform="translate(-1200.21 -533.481)" />
        </g>
        <g transform="translate(7)">
            <path class="a"
                d="M1213.116,516.239a1.192,1.192,0,0,1-.194-1.695,1.142,1.142,0,0,1,1.677-.223,1.252,1.252,0,0,1,.162,1.669A1.192,1.192,0,0,1,1213.116,516.239Z"
                transform="translate(-1212.658 -501.541)" />
            <path class="a"
                d="M1225.626,503.911a1.2,1.2,0,0,1,.3-1.685,1.159,1.159,0,0,1,1.677.285,1.23,1.23,0,0,1-.337,1.632A1.181,1.181,0,0,1,1225.626,503.911Z"
                transform="translate(-1218.4 -496.108)" />
            <path class="a"
                d="M1233.07,499.249a1.139,1.139,0,0,1,.566-1.579,1.176,1.176,0,0,1,1.615.521,1.21,1.21,0,0,1-.57,1.573A1.252,1.252,0,0,1,1233.07,499.249Z"
                transform="translate(-1221.795 -494.106)" />
            <path class="a"
                d="M1258.456,492.531a1.2,1.2,0,0,1,1.189-1.231,1.154,1.154,0,0,1,1.232,1.17,1.236,1.236,0,0,1-1.189,1.17A1.18,1.18,0,0,1,1258.456,492.531Z"
                transform="translate(-1233.296 -491.296)" />
            <path class="a"
                d="M1267.117,492.8a1.139,1.139,0,0,1,1.349-1.019,1.171,1.171,0,1,1-.293,2.322A1.255,1.255,0,0,1,1267.117,492.8Z"
                transform="translate(-1237.199 -491.503)" />
            <path class="a"
                d="M1220.9,509.548l-.4.359a.1.1,0,0,1-.14,0l-1.491-1.541a.1.1,0,0,1,.009-.14l.424-.387a.1.1,0,0,1,.143,0l1.456,1.576A.1.1,0,0,1,1220.9,509.548Z"
                transform="translate(-1215.445 -498.73)" />
            <path class="a"
                d="M1243.348,496.337l-.5.184a.1.1,0,0,1-.123-.059l-.686-2.033a.1.1,0,0,1,.068-.128l.538-.2a.1.1,0,0,1,.128.057l.638,2.049A.1.1,0,0,1,1243.348,496.337Z"
                transform="translate(-1225.896 -492.557)" />
            <path class="a"
                d="M1251.878,494.392l-.528.08a.1.1,0,0,1-.113-.081l-.377-2.113a.1.1,0,0,1,.086-.112l.567-.087a.1.1,0,0,1,.119.081l.328,2.12A.1.1,0,0,1,1251.878,494.392Z"
                transform="translate(-1229.873 -491.648)" />
        </g>
        <g transform="translate(44.055 1.995)">
            <path class="a" d="M1280.168,495.688a1.213,1.213,0,0,1,2.277.834,1.213,1.213,0,0,1-2.277-.834Z"
                transform="translate(-1280.111 -494.924)" />
            <path class="a"
                d="M1295.773,503.785a1.165,1.165,0,0,1,1.677-.207,1.152,1.152,0,0,1,.265,1.66,1.236,1.236,0,0,1-1.676.207A1.222,1.222,0,0,1,1295.773,503.785Z"
                transform="translate(-1287.074 -498.703)" />
            <path class="a"
                d="M1302.514,509.463a1.184,1.184,0,0,1,1.711.016,1.212,1.212,0,0,1-.02,1.717,1.17,1.17,0,0,1-1.65-.078A1.2,1.2,0,0,1,1302.514,509.463Z"
                transform="translate(-1290.067 -501.31)" />
            <path class="a"
                d="M1316.789,531.479a1.182,1.182,0,0,1,1.522.757,1.136,1.136,0,0,1-.708,1.527,1.256,1.256,0,0,1-1.5-.763A1.2,1.2,0,0,1,1316.789,531.479Z"
                transform="translate(-1296.298 -511.349)" />
            <path class="a"
                d="M1319.212,539.8a1.161,1.161,0,0,1,1.4.969,1.207,1.207,0,0,1-.966,1.416,1.177,1.177,0,0,1-1.332-.983A1.228,1.228,0,0,1,1319.212,539.8Z"
                transform="translate(-1297.324 -515.117)" />
            <path class="a"
                d="M1289.313,500.861a3.683,3.683,0,0,0-.465-.261.092.092,0,0,1-.042-.128l1.006-1.9a.106.106,0,0,1,.14-.04,4.378,4.378,0,0,1,.5.279.106.106,0,0,1,.042.139l-1.049,1.871A.093.093,0,0,1,1289.313,500.861Z"
                transform="translate(-1284.025 -496.546)" />
            <path class="a"
                d="M1308.326,518.146l-.32-.428a.1.1,0,0,1,.019-.136l1.72-1.282a.1.1,0,0,1,.14.025l.343.46a.1.1,0,0,1-.017.14l-1.749,1.242A.1.1,0,0,1,1308.326,518.146Z"
                transform="translate(-1292.674 -504.541)" />
            <path class="a"
                d="M1312.828,525.587l-.231-.482a.1.1,0,0,1,.043-.134l1.889-1.015a.1.1,0,0,1,.131.048l.249.517a.1.1,0,0,1-.041.138l-1.912.971A.1.1,0,0,1,1312.828,525.587Z"
                transform="translate(-1294.747 -507.991)" />
        </g>
    </g>
    <g transform="translate(8.258 8.234)">
        <g transform="translate(66.15 29.405)">
            <path class="a"
                d="M1326.3,537.389a1.1,1.1,0,0,1,1.354.88,1.17,1.17,0,0,1-2.29.477A1.216,1.216,0,0,1,1326.3,537.389Z"
                transform="translate(-1318.554 -537.355)" />
            <path class="a"
                d="M1327.9,553.822a1.158,1.158,0,0,1,1.15,1.185,1.1,1.1,0,0,1-1.209,1.087,1.219,1.219,0,0,1-1.128-1.184A1.15,1.15,0,0,1,1327.9,553.822Z"
                transform="translate(-1319.168 -544.77)" />
            <path class="a" d="M1327.211,562.056a1.139,1.139,0,1,1-.374,2.241,1.136,1.136,0,0,1,.374-2.241Z"
                transform="translate(-1318.804 -548.473)" />
            <path class="a"
                d="M1325.5,570.152a1.1,1.1,0,0,1,.788,1.42,1.17,1.17,0,0,1-2.242-.667A1.216,1.216,0,0,1,1325.5,570.152Z"
                transform="translate(-1317.944 -552.105)" />
            <path class="a"
                d="M1319.148,585.353a1.169,1.169,0,0,1,.46,1.593,1.118,1.118,0,0,1-1.6.372,1.193,1.193,0,0,1-.413-1.565A1.137,1.137,0,0,1,1319.148,585.353Z"
                transform="translate(-1315 -558.899)" />
            <path class="a"
                d="M1326.522,547.605l-.043-.5a.1.1,0,0,1,.089-.1l2.136-.2a.1.1,0,0,1,.1.088l.045.534a.1.1,0,0,1-.088.1l-2.138.157A.1.1,0,0,1,1326.522,547.605Z"
                transform="translate(-1319.064 -541.611)" />
            <path class="a"
                d="M1321.137,579.063l.2-.462a.094.094,0,0,1,.125-.046l1.974.84a.1.1,0,0,1,.05.127l-.212.492a.1.1,0,0,1-.127.05l-1.957-.878A.1.1,0,0,1,1321.137,579.063Z"
                transform="translate(-1316.654 -555.902)" />
            <path class="a"
                d="M1313,592.738l.322-.386a.1.1,0,0,1,.136-.012l1.713,1.291a.092.092,0,0,1,.016.133l-.342.412a.1.1,0,0,1-.139.015l-1.688-1.323A.092.092,0,0,1,1313,592.738Z"
                transform="translate(-1312.982 -562.103)" />
        </g>
        <g transform="translate(32.664 64.457)">
            <path class="a"
                d="M1306.345,601.486a1.17,1.17,0,0,1-.037,1.663,1.184,1.184,0,0,1-1.66-.153,1.123,1.123,0,0,1,.1-1.592A1.136,1.136,0,0,1,1306.345,601.486Z"
                transform="translate(-1275.613 -601.116)" />
            <path class="a"
                d="M1292.954,611.08a1.133,1.133,0,0,1-.462,1.57,1.116,1.116,0,0,1-1.545-.5,1.2,1.2,0,0,1,.462-1.57A1.176,1.176,0,0,1,1292.954,611.08Z"
                transform="translate(-1269.509 -605.32)" />
            <path class="a"
                d="M1285.467,614.561a1.166,1.166,0,0,1-.643,1.526,1.1,1.1,0,0,1-1.474-.7,1.215,1.215,0,0,1,.655-1.49A1.142,1.142,0,0,1,1285.467,614.561Z"
                transform="translate(-1266.113 -606.835)" />
            <path class="a" d="M1277.6,617.131a1.139,1.139,0,1,1-2.207.531,1.135,1.135,0,0,1,2.207-.531Z"
                transform="translate(-1262.544 -607.94)" />
            <path class="a"
                d="M1261.245,619.265a1.117,1.117,0,0,1-1.147,1.152,1.133,1.133,0,0,1-1.125-1.188,1.178,1.178,0,0,1,1.148-1.152A1.2,1.2,0,0,1,1261.245,619.265Z"
                transform="translate(-1255.154 -608.753)" />
            <path class="a"
                d="M1298.331,606.563l.419-.278a.1.1,0,0,1,.132.029l1.237,1.753a.094.094,0,0,1-.025.134l-.446.3a.1.1,0,0,1-.136-.026l-1.2-1.776A.093.093,0,0,1,1298.331,606.563Z"
                transform="translate(-1272.875 -603.437)" />
            <path class="a"
                d="M1268.532,617.691l.5-.042a.1.1,0,0,1,.1.089l.263,2.13a.093.093,0,0,1-.085.1l-.533.046a.1.1,0,0,1-.107-.089l-.223-2.134A.092.092,0,0,1,1268.532,617.691Z"
                transform="translate(-1259.426 -608.56)" />
            <path class="a"
                d="M1252.432,617.477l.5.058a.094.094,0,0,1,.08.107l-.262,2.13a.1.1,0,0,1-.109.085l-.532-.062a.1.1,0,0,1-.084-.108l.3-2.124A.1.1,0,0,1,1252.432,617.477Z"
                transform="translate(-1252.023 -608.482)" />
        </g>
        <g transform="translate(2.757 51.413)">
            <path class="a"
                d="M1240.869,616.226a1.136,1.136,0,0,1-1.45.764,1.113,1.113,0,0,1-.715-1.458,1.2,1.2,0,0,1,1.449-.764A1.172,1.172,0,0,1,1240.869,616.226Z"
                transform="translate(-1216.083 -594.196)" />
            <path class="a"
                d="M1225.842,609.433a1.118,1.118,0,0,1-1.594.395,1.168,1.168,0,0,1-.313-1.628,1.137,1.137,0,0,1,1.565-.349A1.194,1.194,0,0,1,1225.842,609.433Z"
                transform="translate(-1209.367 -591.023)" />
            <path class="a"
                d="M1219.058,604.709a1.117,1.117,0,0,1-1.617.178,1.133,1.133,0,0,1-.132-1.63,1.176,1.176,0,0,1,1.616-.178A1.194,1.194,0,0,1,1219.058,604.709Z"
                transform="translate(-1206.344 -588.845)" />
            <path class="a"
                d="M1212.909,599.189a1.152,1.152,0,0,1-1.648,0,1.1,1.1,0,0,1,.058-1.623,1.216,1.216,0,0,1,1.638.01A1.156,1.156,0,0,1,1212.909,599.189Z"
                transform="translate(-1203.598 -586.333)" />
            <path class="a"
                d="M1202.872,586.1a1.1,1.1,0,0,1-1.571-.42,1.17,1.17,0,0,1,2.039-1.147A1.22,1.22,0,0,1,1202.872,586.1Z"
                transform="translate(-1199.197 -580.347)" />
            <path class="a"
                d="M1232.657,611.684l.462.2a.092.092,0,0,1,.043.125l-.9,1.948a.1.1,0,0,1-.13.049l-.492-.212a.092.092,0,0,1-.047-.126l.937-1.931A.1.1,0,0,1,1232.657,611.684Z"
                transform="translate(-1212.906 -592.827)" />
            <path class="a"
                d="M1207.6,591.338a3.163,3.163,0,0,0,.3.4.09.09,0,0,1-.02.129l-1.712,1.292a.1.1,0,0,1-.139-.017,3.609,3.609,0,0,1-.32-.429.1.1,0,0,1,.025-.138l1.737-1.259A.09.09,0,0,1,1207.6,591.338Z"
                transform="translate(-1201.239 -583.652)" />
            <path class="a"
                d="M1199.759,577.444l.19.466a.1.1,0,0,1-.055.123l-1.975.836a.1.1,0,0,1-.126-.052l-.2-.5a.1.1,0,0,1,.054-.126l1.99-.8A.1.1,0,0,1,1199.759,577.444Z"
                transform="translate(-1197.583 -577.388)" />
        </g>
        <g transform="translate(0 14.607)">
            <path class="a"
                d="M1195.317,566.939a1.1,1.1,0,0,1-1.354-.879,1.17,1.17,0,0,1,2.29-.477A1.216,1.216,0,0,1,1195.317,566.939Z"
                transform="translate(-1193.185 -534.863)" />
            <path class="a"
                d="M1193.714,550.515a1.158,1.158,0,0,1-1.15-1.185,1.1,1.1,0,0,1,1.209-1.088,1.22,1.22,0,0,1,1.128,1.184A1.149,1.149,0,0,1,1193.714,550.515Z"
                transform="translate(-1192.564 -527.458)" />
            <path class="a" d="M1194.4,542.281a1.139,1.139,0,1,1,.374-2.241,1.136,1.136,0,0,1-.374,2.241Z"
                transform="translate(-1192.925 -523.756)" />
            <path class="a"
                d="M1196.1,534.191a1.1,1.1,0,0,1-.788-1.419,1.17,1.17,0,0,1,2.242.666A1.216,1.216,0,0,1,1196.1,534.191Z"
                transform="translate(-1193.779 -520.128)" />
            <path class="a"
                d="M1202.495,518.961a1.17,1.17,0,0,1-.459-1.593,1.118,1.118,0,0,1,1.6-.372,1.193,1.193,0,0,1,.414,1.565A1.138,1.138,0,0,1,1202.495,518.961Z"
                transform="translate(-1196.766 -513.306)" />
            <path class="a"
                d="M1195.056,557.872l.042.5a.1.1,0,0,1-.09.1l-2.135.2a.1.1,0,0,1-.1-.089l-.046-.534a.1.1,0,0,1,.089-.1l2.139-.157A.1.1,0,0,1,1195.056,557.872Z"
                transform="translate(-1192.636 -531.757)" />
            <path class="a"
                d="M1200.451,525.888l-.2.462a.1.1,0,0,1-.125.046l-1.973-.84a.1.1,0,0,1-.051-.128l.211-.492a.1.1,0,0,1,.128-.05l1.957.878A.1.1,0,0,1,1200.451,525.888Z"
                transform="translate(-1195.056 -516.939)" />
            <path class="a"
                d="M1208.7,511.912l-.322.387a.1.1,0,0,1-.136.011l-1.713-1.29a.092.092,0,0,1-.015-.134l.341-.413a.1.1,0,0,1,.139-.015l1.688,1.323A.091.091,0,0,1,1208.7,511.912Z"
                transform="translate(-1198.839 -510.437)" />
        </g>
        <g transform="translate(12.303)">
            <path class="a"
                d="M1215.289,502.828a1.17,1.17,0,0,1,.037-1.663,1.184,1.184,0,0,1,1.66.154,1.122,1.122,0,0,1-.1,1.591A1.135,1.135,0,0,1,1215.289,502.828Z"
                transform="translate(-1214.96 -491.534)" />
            <path class="a"
                d="M1228.7,493.211a1.133,1.133,0,0,1,.463-1.57,1.116,1.116,0,0,1,1.545.505,1.2,1.2,0,0,1-.463,1.57A1.176,1.176,0,0,1,1228.7,493.211Z"
                transform="translate(-1221.084 -487.306)" />
            <path class="a"
                d="M1236.2,489.709a1.164,1.164,0,0,1,.643-1.525,1.1,1.1,0,0,1,1.474.7,1.215,1.215,0,0,1-.656,1.49A1.141,1.141,0,0,1,1236.2,489.709Z"
                transform="translate(-1224.492 -485.77)" />
            <path class="a" d="M1244.06,487.154a1.138,1.138,0,1,1,2.207-.531,1.135,1.135,0,0,1-2.207.531Z"
                transform="translate(-1228.055 -484.681)" />
            <path class="a"
                d="M1260.416,485.019a1.117,1.117,0,0,1,1.148-1.152,1.132,1.132,0,0,1,1.124,1.188,1.178,1.178,0,0,1-1.148,1.152A1.2,1.2,0,0,1,1260.416,485.019Z"
                transform="translate(-1235.445 -483.867)" />
            <path class="a"
                d="M1223.681,497.8l-.418.278a.1.1,0,0,1-.132-.029l-1.238-1.753a.094.094,0,0,1,.025-.134l.446-.3a.1.1,0,0,1,.135.026l1.2,1.776A.093.093,0,0,1,1223.681,497.8Z"
                transform="translate(-1218.076 -489.263)" />
            <path class="a"
                d="M1254.215,486.569l-.5.042a.1.1,0,0,1-.1-.089l-.264-2.13a.093.093,0,0,1,.085-.1l.533-.046a.1.1,0,0,1,.108.089l.223,2.134A.092.092,0,0,1,1254.215,486.569Z"
                transform="translate(-1232.26 -484.035)" />
            <path class="a"
                d="M1270.284,486.774l-.5-.058a.093.093,0,0,1-.078-.107l.261-2.13a.1.1,0,0,1,.109-.085l.532.062a.094.094,0,0,1,.084.107l-.3,2.125A.1.1,0,0,1,1270.284,486.774Z"
                transform="translate(-1239.632 -484.104)" />
        </g>
        <g transform="translate(48.434 1.859)">
            <path class="a"
                d="M1280.782,488.068a1.136,1.136,0,0,1,1.449-.764,1.113,1.113,0,0,1,.715,1.458,1.2,1.2,0,0,1-1.45.764A1.173,1.173,0,0,1,1280.782,488.068Z"
                transform="translate(-1280.731 -487.248)" />
            <path class="a"
                d="M1295.816,494.846a1.118,1.118,0,0,1,1.594-.4,1.169,1.169,0,0,1,.314,1.628,1.138,1.138,0,0,1-1.566.349A1.194,1.194,0,0,1,1295.816,494.846Z"
                transform="translate(-1287.454 -490.405)" />
            <path class="a"
                d="M1302.586,499.592a1.117,1.117,0,0,1,1.617-.178,1.133,1.133,0,0,1,.132,1.63,1.177,1.177,0,0,1-1.617.178A1.2,1.2,0,0,1,1302.586,499.592Z"
                transform="translate(-1290.464 -492.606)" />
            <path class="a"
                d="M1308.706,505.143a1.152,1.152,0,0,1,1.648,0,1.1,1.1,0,0,1-.058,1.623,1.214,1.214,0,0,1-1.637-.01A1.155,1.155,0,0,1,1308.706,505.143Z"
                transform="translate(-1293.179 -495.15)" />
            <path class="a"
                d="M1318.768,518.212a1.1,1.1,0,0,1,1.571.419,1.17,1.17,0,0,1-2.038,1.147A1.219,1.219,0,0,1,1318.768,518.212Z"
                transform="translate(-1297.608 -501.112)" />
            <path class="a"
                d="M1289.567,492.6l-.462-.2a.091.091,0,0,1-.043-.124l.9-1.948a.1.1,0,0,1,.13-.049l.492.212a.093.093,0,0,1,.047.126l-.937,1.93A.1.1,0,0,1,1289.567,492.6Z"
                transform="translate(-1284.481 -488.611)" />
            <path class="a"
                d="M1314.1,513.322a3.253,3.253,0,0,0-.3-.4.09.09,0,0,1,.019-.129l1.712-1.292a.1.1,0,0,1,.139.017,3.6,3.6,0,0,1,.32.429.1.1,0,0,1-.025.138l-1.737,1.259A.09.09,0,0,1,1314.1,513.322Z"
                transform="translate(-1295.624 -498.158)" />
            <path class="a"
                d="M1321.822,527.538l-.19-.466a.1.1,0,0,1,.056-.123l1.975-.836a.1.1,0,0,1,.126.052l.2.5a.1.1,0,0,1-.053.126l-1.991.8A.1.1,0,0,1,1321.822,527.538Z"
                transform="translate(-1299.161 -504.744)" />
        </g>
    </g>
    <g transform="translate(73.864 51.716)">
        <path class="a"
            d="M1342.151,562.969a1.124,1.124,0,0,1,.954,1.345,1.188,1.188,0,0,1-1.359,1,1.171,1.171,0,0,1-.955-1.345A1.245,1.245,0,0,1,1342.151,562.969Z"
            transform="translate(-1324.962 -562.961)" />
        <path class="a"
            d="M1338.066,579.789a1.137,1.137,0,0,1,.662,1.52,1.17,1.17,0,1,1-2.191-.819A1.23,1.23,0,0,1,1338.066,579.789Z"
            transform="translate(-1323.017 -570.509)" />
        <path class="a" d="M1330.541,595.359a1.191,1.191,0,0,1-1.284,2.007,1.191,1.191,0,0,1,1.284-2.007Z"
            transform="translate(-1319.535 -577.472)" />
        <path class="a"
            d="M1325.433,602.66a1.174,1.174,0,0,1,.174,1.671,1.137,1.137,0,0,1-1.646.2,1.226,1.226,0,0,1-.174-1.671A1.187,1.187,0,0,1,1325.433,602.66Z"
            transform="translate(-1317.193 -580.727)" />
        <path class="a"
            d="M1339,573.058l.143-.51a.1.1,0,0,1,.12-.07l2.081.517a.1.1,0,0,1,.067.122l-.15.538a.1.1,0,0,1-.121.073l-2.072-.551A.1.1,0,0,1,1339,573.058Z"
            transform="translate(-1324.162 -567.245)" />
        <path class="a"
            d="M1333.006,588.845l.24-.472a.1.1,0,0,1,.131-.043l1.926.944a.1.1,0,0,1,.041.133l-.254.5a.1.1,0,0,1-.133.046l-1.91-.976A.1.1,0,0,1,1333.006,588.845Z"
            transform="translate(-1321.456 -574.379)" />
        <path class="a"
            d="M1318.185,609.34l.366-.384a.1.1,0,0,1,.136,0l1.535,1.5a.1.1,0,0,1,0,.141l-.385.4a.1.1,0,0,1-.139,0l-1.51-1.524A.1.1,0,0,1,1318.185,609.34Z"
            transform="translate(-1314.77 -583.658)" />
        <path class="a"
            d="M1312.023,614.93l.4-.347a.1.1,0,0,1,.135.012l1.372,1.649a.1.1,0,0,1-.015.141l-.422.364a.1.1,0,0,1-.138-.009l-1.346-1.671A.1.1,0,0,1,1312.023,614.93Z"
            transform="translate(-1311.99 -586.194)" />
    </g>
    <g transform="translate(36.223 84.12)">
        <path class="a"
            d="M1303.029,622.479a1.15,1.15,0,0,1-.444,1.605,1.162,1.162,0,0,1-1.62-.418,1.2,1.2,0,0,1,.444-1.605A1.214,1.214,0,0,1,1303.029,622.479Z"
            transform="translate(-1269.315 -621.906)" />
        <path class="a"
            d="M1287.345,629.76a1.174,1.174,0,0,1-.764,1.5,1.138,1.138,0,0,1-1.49-.728,1.228,1.228,0,0,1,.764-1.5A1.188,1.188,0,0,1,1287.345,629.76Z"
            transform="translate(-1262.205 -625.087)" />
        <path class="a"
            d="M1270.477,633.6a1.194,1.194,0,0,1-1.06,1.319,1.122,1.122,0,0,1-1.3-1.03,1.249,1.249,0,0,1,1.062-1.3A1.166,1.166,0,0,1,1270.477,633.6Z"
            transform="translate(-1254.575 -626.715)" />
        <path class="a"
            d="M1261.575,634.177a1.207,1.207,0,0,1-1.2,1.207,1.145,1.145,0,0,1-1.182-1.193,1.221,1.221,0,0,1,1.2-1.147A1.154,1.154,0,0,1,1261.575,634.177Z"
            transform="translate(-1250.557 -626.921)" />
        <path class="a"
            d="M1293.9,626.052l.482-.219a.1.1,0,0,1,.129.048l.893,1.951a.1.1,0,0,1-.052.13l-.508.23a.1.1,0,0,1-.131-.047l-.861-1.965A.1.1,0,0,1,1293.9,626.052Z"
            transform="translate(-1266.172 -623.671)" />
        <path class="a"
            d="M1277.848,631.289l.516-.121a.1.1,0,0,1,.115.073l.463,2.1a.1.1,0,0,1-.078.118l-.543.127a.1.1,0,0,1-.119-.072l-.428-2.1A.1.1,0,0,1,1277.848,631.289Z"
            transform="translate(-1258.928 -626.075)" />
        <path class="a"
            d="M1252.425,632.544l.528.037a.094.094,0,0,1,.087.1l-.213,2.135a.1.1,0,0,1-.111.09l-.556-.04a.094.094,0,0,1-.09-.1l.247-2.131A.1.1,0,0,1,1252.425,632.544Z"
            transform="translate(-1247.345 -626.696)" />
        <path class="a"
            d="M1244.052,631.188l.522.09a.094.094,0,0,1,.075.111l-.43,2.1a.1.1,0,0,1-.12.078l-.549-.1a.094.094,0,0,1-.078-.113l.464-2.095A.1.1,0,0,1,1244.052,631.188Z"
            transform="translate(-1243.47 -626.085)" />
    </g>
    <g transform="translate(4.737 65.593)">
        <path class="a" d="M1232.121,629.016a1.191,1.191,0,0,1-2.218-.867,1.191,1.191,0,0,1,2.218.867Z"
            transform="translate(-1205.83 -605.858)" />
        <path class="a"
            d="M1216.642,621.3a1.174,1.174,0,0,1-1.647.334,1.138,1.138,0,0,1-.358-1.619,1.227,1.227,0,0,1,1.646-.334A1.187,1.187,0,0,1,1216.642,621.3Z"
            transform="translate(-1198.9 -602.294)" />
        <path class="a"
            d="M1203.129,610.513a1.2,1.2,0,0,1-1.7,0,1.136,1.136,0,0,1,.006-1.673,1.231,1.231,0,0,1,1.663.033A1.162,1.162,0,0,1,1203.129,610.513Z"
            transform="translate(-1192.875 -597.356)" />
        <path class="a"
            d="M1197.143,603.9a1.217,1.217,0,0,1-1.7-.176,1.2,1.2,0,0,1,.217-1.688,1.158,1.158,0,0,1,1.618.237A1.143,1.143,0,0,1,1197.143,603.9Z"
            transform="translate(-1190.229 -594.329)" />
        <path class="a"
            d="M1223.712,623.864l.472.24a.1.1,0,0,1,.042.131l-.969,1.914a.1.1,0,0,1-.134.041l-.5-.253a.1.1,0,0,1-.045-.133l1-1.9A.1.1,0,0,1,1223.712,623.864Z"
            transform="translate(-1202.565 -604.256)" />
        <path class="a"
            d="M1209.366,614.519l.417.328a.094.094,0,0,1,.015.135l-1.35,1.668a.1.1,0,0,1-.141.013l-.438-.345a.1.1,0,0,1-.017-.138l1.378-1.645A.1.1,0,0,1,1209.366,614.519Z"
            transform="translate(-1195.922 -600.043)" />
        <path class="a"
            d="M1192.375,595.52a4.694,4.694,0,0,0,.274.453.092.092,0,0,1-.025.131l-1.8,1.166a.105.105,0,0,1-.141-.03,5.29,5.29,0,0,1-.289-.477.1.1,0,0,1,.031-.139l1.82-1.137A.092.092,0,0,1,1192.375,595.52Z"
            transform="translate(-1188.058 -591.477)" />
        <path class="a"
            d="M1188.262,588.259l.218.483a.1.1,0,0,1-.047.132l-1.911.974a.094.094,0,0,1-.129-.048l-.231-.508a.1.1,0,0,1,.046-.135l1.926-.942A.093.093,0,0,1,1188.262,588.259Z"
            transform="translate(-1186.154 -588.204)" />
    </g>
    <g transform="translate(0 26.456)">
        <path class="a"
            d="M1182.821,577.66a1.191,1.191,0,0,1-1.5-.78,1.123,1.123,0,0,1,.748-1.48,1.246,1.246,0,0,1,1.485.784A1.169,1.169,0,0,1,1182.821,577.66Z"
            transform="translate(-1179.208 -543.283)" />
        <path class="a"
            d="M1179.192,560.739a1.213,1.213,0,0,1-1.32-1.077,1.169,1.169,0,0,1,1.09-1.292,1.191,1.191,0,0,1,1.239,1.083A1.147,1.147,0,0,1,1179.192,560.739Z"
            transform="translate(-1177.679 -535.633)" />
        <path class="a" d="M1179.208,543.441a1.191,1.191,0,1,1,.286-2.363,1.193,1.193,0,0,1-.286,2.363Z"
            transform="translate(-1177.799 -527.843)" />
        <path class="a"
            d="M1180.621,534.637a1.183,1.183,0,0,1-.908-1.432,1.217,1.217,0,0,1,1.459-.883,1.143,1.143,0,0,1,.818,1.412A1.176,1.176,0,0,1,1180.621,534.637Z"
            transform="translate(-1178.497 -523.889)" />
        <path class="a"
            d="M1181.346,568.157l.121.516a.094.094,0,0,1-.074.114l-2.1.435a.1.1,0,0,1-.118-.079l-.127-.544a.094.094,0,0,1,.073-.117l2.107-.4A.1.1,0,0,1,1181.346,568.157Z"
            transform="translate(-1178.214 -540.006)" />
        <path class="a"
            d="M1179.877,551.3a4.73,4.73,0,0,0,0,.529.092.092,0,0,1-.094.1l-2.144-.017a.1.1,0,0,1-.1-.1,5.118,5.118,0,0,1,0-.557.1.1,0,0,1,.1-.1l2.144.052A.091.091,0,0,1,1179.877,551.3Z"
            transform="translate(-1177.531 -532.384)" />
        <path class="a"
            d="M1184.348,525.914l-.193.493a.1.1,0,0,1-.127.059l-2.034-.68a.093.093,0,0,1-.055-.125l.2-.521a.1.1,0,0,1,.128-.062l2.022.714A.093.093,0,0,1,1184.348,525.914Z"
            transform="translate(-1179.514 -520.642)" />
        <path class="a"
            d="M1187.535,518.071l-.241.472a.1.1,0,0,1-.133.046l-1.951-.888a.1.1,0,0,1-.043-.131l.253-.5a.1.1,0,0,1,.135-.048l1.937.921A.094.094,0,0,1,1187.535,518.071Z"
            transform="translate(-1180.967 -517.013)" />
    </g>
    <g transform="translate(7.789 1.259)">
        <path class="a"
            d="M1192.237,507.066a1.194,1.194,0,0,1-.326-1.661,1.123,1.123,0,0,1,1.627-.334,1.246,1.246,0,0,1,.308,1.649A1.166,1.166,0,0,1,1192.237,507.066Z"
            transform="translate(-1191.709 -486.341)" />
        <path class="a"
            d="M1203.194,493.709a1.22,1.22,0,0,1,.014-1.707,1.2,1.2,0,0,1,1.7.057,1.159,1.159,0,0,1-.083,1.634A1.141,1.141,0,0,1,1203.194,493.709Z"
            transform="translate(-1196.731 -480.408)" />
        <path class="a"
            d="M1216.693,482.928a1.136,1.136,0,0,1,.394-1.626,1.2,1.2,0,0,1,1.647.4,1.162,1.162,0,0,1-.418,1.589A1.232,1.232,0,0,1,1216.693,482.928Z"
            transform="translate(-1202.883 -475.659)" />
        <path class="a"
            d="M1224.454,478.541a1.131,1.131,0,0,1,.582-1.548,1.17,1.17,0,1,1,1.006,2.113A1.236,1.236,0,0,1,1224.454,478.541Z"
            transform="translate(-1206.411 -473.745)" />
        <path class="a"
            d="M1199.22,499.856l-.327.417a.094.094,0,0,1-.134.014l-1.648-1.373a.1.1,0,0,1-.012-.142l.345-.438a.1.1,0,0,1,.137-.017l1.625,1.4A.1.1,0,0,1,1199.22,499.856Z"
            transform="translate(-1194.128 -483.388)" />
        <path class="a"
            d="M1211.673,488.028l-.432.306a.1.1,0,0,1-.135-.015l-1.326-1.687a.1.1,0,0,1,.019-.141l.454-.324a.1.1,0,0,1,.142.019l1.3,1.709A.093.093,0,0,1,1211.673,488.028Z"
            transform="translate(-1199.844 -477.918)" />
        <path class="a"
            d="M1234.341,475.83l-.5.171a.1.1,0,0,1-.125-.06l-.736-2.015a.1.1,0,0,1,.063-.124l.528-.18a.1.1,0,0,1,.129.059l.7,2.028A.1.1,0,0,1,1234.341,475.83Z"
            transform="translate(-1210.305 -472.275)" />
        <path class="a"
            d="M1242.468,473.459l-.516.121a.1.1,0,0,1-.118-.073l-.522-2.081a.1.1,0,0,1,.075-.118l.543-.128a.1.1,0,0,1,.122.072l.488,2.09A.1.1,0,0,1,1242.468,473.459Z"
            transform="translate(-1214.062 -471.178)" />
    </g>
    <g transform="translate(41.593)">
        <path class="a"
            d="M1253.252,470.414a1.192,1.192,0,0,1,1.093-1.3,1.22,1.22,0,0,1,1.279,1.13,1.141,1.141,0,0,1-1.1,1.2A1.168,1.168,0,0,1,1253.252,470.414Z"
            transform="translate(-1253.245 -468.99)" />
        <path class="a"
            d="M1270.552,470.656a1.145,1.145,0,0,1,1.336-1.016,1.208,1.208,0,0,1,1.018,1.363,1.152,1.152,0,0,1-1.329.957A1.222,1.222,0,0,1,1270.552,470.656Z"
            transform="translate(-1261.042 -469.217)" />
        <path class="a"
            d="M1287.436,474.486a1.121,1.121,0,0,1,1.51-.689,1.2,1.2,0,0,1,.715,1.535,1.166,1.166,0,0,1-1.5.668A1.248,1.248,0,0,1,1287.436,474.486Z"
            transform="translate(-1268.629 -471.059)" />
        <path class="a"
            d="M1295.706,477.837a1.132,1.132,0,0,1,1.573-.511,1.17,1.17,0,1,1-1.025,2.1A1.236,1.236,0,0,1,1295.706,477.837Z"
            transform="translate(-1272.333 -472.626)" />
        <path class="a"
            d="M1263.98,471.266l-.528-.038a.1.1,0,0,1-.094-.1l.046-2.146a.094.094,0,0,1,.1-.09l.556.038a.1.1,0,0,1,.1.1l-.08,2.145A.092.092,0,0,1,1263.98,471.266Z"
            transform="translate(-1257.802 -468.889)" />
        <path class="a"
            d="M1280.7,473.589l-.51-.143a.1.1,0,0,1-.07-.12l.489-2.09a.094.094,0,0,1,.12-.068l.538.149a.1.1,0,0,1,.074.122l-.523,2.081A.093.093,0,0,1,1280.7,473.589Z"
            transform="translate(-1265.357 -469.913)" />
        <path class="a"
            d="M1303.952,483.608l-.446-.286a.1.1,0,0,1-.031-.135l1.118-1.831a.1.1,0,0,1,.136-.029l.47.3a.1.1,0,0,1,.034.137l-1.148,1.813A.1.1,0,0,1,1303.952,483.608Z"
            transform="translate(-1275.876 -474.482)" />
        <path class="a"
            d="M1310.752,488.463l-.416-.328a.1.1,0,0,1-.016-.137l1.3-1.7a.1.1,0,0,1,.139-.015l.439.345a.1.1,0,0,1,.019.139l-1.33,1.683A.1.1,0,0,1,1310.752,488.463Z"
            transform="translate(-1278.958 -476.709)" />
    </g>
    <g transform="translate(78.074 14.326)">
        <path class="a"
            d="M1320,495.284a1.157,1.157,0,0,1,1.684.056,1.209,1.209,0,0,1-.078,1.7,1.151,1.151,0,0,1-1.634-.1A1.207,1.207,0,0,1,1320,495.284Z"
            transform="translate(-1319.655 -494.948)" />
        <path class="a"
            d="M1330.607,508.94a1.13,1.13,0,0,1,1.6.432,1.17,1.17,0,1,1-2.006,1.2A1.237,1.237,0,0,1,1330.607,508.94Z"
            transform="translate(-1324.336 -501.17)" />
        <path class="a" d="M1338.076,524.545a1.191,1.191,0,0,1,.767,2.256,1.191,1.191,0,0,1-.767-2.256Z"
            transform="translate(-1327.603 -508.242)" />
        <path class="a"
            d="M1340.6,533.1a1.171,1.171,0,0,1,1.413.906,1.141,1.141,0,0,1-.869,1.414,1.223,1.223,0,0,1-1.413-.9A1.192,1.192,0,0,1,1340.6,533.1Z"
            transform="translate(-1328.69 -512.11)" />
        <path class="a"
            d="M1325.64,503.89l-.306-.432a.1.1,0,0,1,.021-.138l1.7-1.3a.1.1,0,0,1,.136.024l.323.455a.1.1,0,0,1-.019.141l-1.724,1.276A.1.1,0,0,1,1325.64,503.89Z"
            transform="translate(-1322.207 -498.122)" />
        <path class="a"
            d="M1334.278,518.692l-.219-.483a.1.1,0,0,1,.048-.13l1.937-.92a.1.1,0,0,1,.13.051l.23.508a.1.1,0,0,1-.047.133l-1.952.888A.1.1,0,0,1,1334.278,518.692Z"
            transform="translate(-1326.143 -504.945)" />
        <path class="a"
            d="M1341.132,543.508l-.069-.526a.1.1,0,0,1,.084-.107l2.128-.267a.1.1,0,0,1,.11.089l.072.554a.1.1,0,0,1-.084.111l-2.132.231A.1.1,0,0,1,1341.132,543.508Z"
            transform="translate(-1329.302 -516.407)" />
        <path class="a"
            d="M1341.662,551.969l-.016-.529a.1.1,0,0,1,.094-.1l2.144-.044a.1.1,0,0,1,.1.1l.018.558a.1.1,0,0,1-.095.1l-2.144.008A.1.1,0,0,1,1341.662,551.969Z"
            transform="translate(-1329.566 -520.32)" />
    </g>
    <g transform="translate(4.142 4.14)">
        <g transform="translate(71.425 35.792)">
            <path class="a"
                d="M1334.66,541.539a1.164,1.164,0,0,1,1.292,1.111,1.173,1.173,0,1,1-2.32.292A1.283,1.283,0,0,1,1334.66,541.539Z"
                transform="translate(-1323.444 -541.525)" />
            <path class="a"
                d="M1334.971,559.878a1.226,1.226,0,0,1,1.039,1.4,1.159,1.159,0,0,1-1.307,1.112,1.288,1.288,0,0,1-1.015-1.4A1.212,1.212,0,0,1,1334.971,559.878Z"
                transform="translate(-1323.471 -549.787)" />
            <path class="a"
                d="M1330.844,577.763a1.163,1.163,0,0,1,.625,1.6,1.173,1.173,0,1,1-2.181-.844A1.284,1.284,0,0,1,1330.844,577.763Z"
                transform="translate(-1321.445 -557.815)" />
            <path class="a"
                d="M1327,586.4a1.2,1.2,0,0,1,.438,1.673,1.177,1.177,0,0,1-1.619.56,1.265,1.265,0,0,1-.439-1.673A1.235,1.235,0,0,1,1327,586.4Z"
                transform="translate(-1319.661 -561.677)" />
            <path class="a"
                d="M1334.2,552.951l0-.561a.1.1,0,0,1,.1-.1l2.144-.026a.1.1,0,0,1,.1.107l0,.593a.1.1,0,0,1-.1.108l-2.144-.015A.1.1,0,0,1,1334.2,552.951Z"
                transform="translate(-1323.701 -546.359)" />
            <path class="a"
                d="M1331.979,570.673a3.546,3.546,0,0,0,.138-.542.1.1,0,0,1,.114-.078l2.085.5a.108.108,0,0,1,.074.129,3.954,3.954,0,0,1-.146.574.108.108,0,0,1-.125.079l-2.075-.542A.1.1,0,0,1,1331.979,570.673Z"
                transform="translate(-1322.7 -554.369)" />
            <path class="a"
                d="M1320.675,594.9l.308-.469a.1.1,0,0,1,.136-.03l1.763,1.221a.106.106,0,0,1,.02.146l-.327.5a.1.1,0,0,1-.139.033l-1.74-1.254A.105.105,0,0,1,1320.675,594.9Z"
                transform="translate(-1317.6 -565.325)" />
            <path class="a"
                d="M1315.121,601.758l.392-.4a.106.106,0,0,1,.144-.008l1.6,1.424a.1.1,0,0,1,0,.142l-.414.426a.106.106,0,0,1-.147.011l-1.577-1.454A.1.1,0,0,1,1315.121,601.758Z"
                transform="translate(-1315.092 -568.45)" />
        </g>
        <g transform="translate(32.88 73.655)">
            <path class="a"
                d="M1306.782,610.811a1.237,1.237,0,0,1-.267,1.735,1.253,1.253,0,0,1-1.746-.214,1.183,1.183,0,0,1,.332-1.65A1.2,1.2,0,0,1,1306.782,610.811Z"
                transform="translate(-1271.802 -610.4)" />
            <path class="a"
                d="M1291.071,620.266a1.2,1.2,0,0,1-.7,1.577,1.182,1.182,0,0,1-1.616-.577,1.262,1.262,0,0,1,.7-1.578A1.24,1.24,0,0,1,1291.071,620.266Z"
                transform="translate(-1264.642 -614.535)" />
            <path class="a" d="M1273.513,625.619a1.261,1.261,0,0,1-2.491.39,1.272,1.272,0,0,1,2.491-.39Z"
                transform="translate(-1256.682 -616.836)" />
            <path class="a"
                d="M1264.113,626.665a1.159,1.159,0,0,1-1.226,1.2,1.227,1.227,0,0,1-1.3-1.165,1.211,1.211,0,0,1,1.228-1.175A1.288,1.288,0,0,1,1264.113,626.665Z"
                transform="translate(-1252.435 -617.211)" />
            <path class="a"
                d="M1297.589,615.817l.489-.271a.1.1,0,0,1,.139.035l1.093,1.846a.1.1,0,0,1-.045.136l-.518.288a.1.1,0,0,1-.143-.033l-1.057-1.867A.1.1,0,0,1,1297.589,615.817Z"
                transform="translate(-1268.635 -612.711)" />
            <path class="a"
                d="M1281.143,622.78l.534-.169a.1.1,0,0,1,.125.062l.607,2.058a.105.105,0,0,1-.075.126l-.566.179a.1.1,0,0,1-.129-.061l-.568-2.07A.106.106,0,0,1,1281.143,622.78Z"
                transform="translate(-1261.214 -615.896)" />
            <path class="a"
                d="M1254.4,625.195l.557.054a.1.1,0,0,1,.093.107l-.173,2.139a.1.1,0,0,1-.115.087l-.59-.057a.1.1,0,0,1-.1-.107l.214-2.135A.1.1,0,0,1,1254.4,625.195Z"
                transform="translate(-1249.048 -617.061)" />
            <path class="a"
                d="M1245.521,623.833l.55.109a.1.1,0,0,1,.081.115l-.432,2.1a.1.1,0,0,1-.125.074l-.582-.116a.1.1,0,0,1-.085-.115l.472-2.093A.1.1,0,0,1,1245.521,623.833Z"
                transform="translate(-1244.925 -616.448)" />
        </g>
        <g transform="translate(1.933 54.021)">
            <path class="a"
                d="M1232.92,621.332a1.2,1.2,0,0,1-1.623.6,1.178,1.178,0,0,1-.712-1.559,1.264,1.264,0,0,1,1.623-.6A1.237,1.237,0,0,1,1232.92,621.332Z"
                transform="translate(-1207.472 -594.943)" />
            <path class="a"
                d="M1216.905,612.442a1.182,1.182,0,0,1-1.723.191,1.238,1.238,0,0,1-.28-1.727,1.2,1.2,0,0,1,1.687-.142A1.261,1.261,0,0,1,1216.905,612.442Z"
                transform="translate(-1200.34 -590.804)" />
            <path class="a"
                d="M1203.52,599.92a1.219,1.219,0,0,1-1.724-.23,1.162,1.162,0,0,1,.107-1.711,1.284,1.284,0,0,1,1.712.239A1.219,1.219,0,0,1,1203.52,599.92Z"
                transform="translate(-1194.396 -585.072)" />
            <path class="a"
                d="M1197.942,592.275a1.241,1.241,0,0,1-1.7-.432,1.257,1.257,0,0,1,.383-1.719,1.18,1.18,0,0,1,1.608.491A1.2,1.2,0,0,1,1197.942,592.275Z"
                transform="translate(-1191.955 -581.571)" />
            <path class="a"
                d="M1224.14,615.674l.5.262a.1.1,0,0,1,.042.133l-1.053,1.869a.106.106,0,0,1-.143.034l-.524-.278a.1.1,0,0,1-.046-.134L1224,615.71A.1.1,0,0,1,1224.14,615.674Z"
                transform="translate(-1204.052 -593.135)" />
            <path class="a"
                d="M1209.671,604.789l.4.391a.1.1,0,0,1,.006.142l-1.475,1.558a.1.1,0,0,1-.144,0l-.424-.415a.1.1,0,0,1-.01-.145l1.5-1.529A.1.1,0,0,1,1209.671,604.789Z"
                transform="translate(-1197.337 -588.226)" />
            <path class="a"
                d="M1194.014,582.962l.221.515a.1.1,0,0,1-.047.135l-1.939.918a.1.1,0,0,1-.131-.058l-.235-.545a.1.1,0,0,1,.046-.139l1.956-.88A.1.1,0,0,1,1194.014,582.962Z"
                transform="translate(-1190.07 -578.384)" />
            <path class="a"
                d="M1190.827,574.758l.169.534a.1.1,0,0,1-.062.128l-2.035.675a.1.1,0,0,1-.125-.073l-.179-.566a.1.1,0,0,1,.06-.132l2.048-.636A.1.1,0,0,1,1190.827,574.758Z"
                transform="translate(-1188.59 -574.685)" />
        </g>
        <g transform="translate(0 13.593)">
            <path class="a"
                d="M1186.95,562.589a1.164,1.164,0,0,1-1.293-1.111,1.173,1.173,0,1,1,2.32-.291A1.282,1.282,0,0,1,1186.95,562.589Z"
                transform="translate(-1185.332 -527.677)" />
            <path class="a"
                d="M1186.642,544.251a1.225,1.225,0,0,1-1.04-1.4,1.16,1.16,0,0,1,1.307-1.113,1.288,1.288,0,0,1,1.015,1.4A1.212,1.212,0,0,1,1186.642,544.251Z"
                transform="translate(-1185.307 -519.417)" />
            <path class="a"
                d="M1190.727,526.4a1.162,1.162,0,0,1-.625-1.6,1.173,1.173,0,1,1,2.182.844A1.284,1.284,0,0,1,1190.727,526.4Z"
                transform="translate(-1187.29 -511.424)" />
            <path class="a"
                d="M1194.581,517.757a1.2,1.2,0,0,1-.438-1.673,1.178,1.178,0,0,1,1.619-.56,1.265,1.265,0,0,1,.438,1.673A1.235,1.235,0,0,1,1194.581,517.757Z"
                transform="translate(-1189.085 -507.555)" />
            <path class="a"
                d="M1187.41,552.589l0,.561a.1.1,0,0,1-.1.1l-2.144.026a.1.1,0,0,1-.1-.107l0-.594a.1.1,0,0,1,.1-.107l2.144.016A.1.1,0,0,1,1187.41,552.589Z"
                transform="translate(-1185.071 -524.255)" />
            <path class="a"
                d="M1189.565,534.472a3.481,3.481,0,0,0-.138.543.1.1,0,0,1-.115.077l-2.085-.5a.107.107,0,0,1-.073-.129,3.981,3.981,0,0,1,.146-.574.108.108,0,0,1,.125-.079l2.075.542A.1.1,0,0,1,1189.565,534.472Z"
                transform="translate(-1186.009 -515.851)" />
            <path class="a"
                d="M1200.993,509.725l-.308.468a.1.1,0,0,1-.135.03L1198.785,509a.107.107,0,0,1-.02-.146l.326-.5a.1.1,0,0,1,.139-.034l1.74,1.255A.106.106,0,0,1,1200.993,509.725Z"
                transform="translate(-1191.234 -504.373)" />
            <path class="a"
                d="M1206.6,502.763l-.392.4a.106.106,0,0,1-.144.008l-1.6-1.424a.1.1,0,0,1,0-.142l.414-.425a.107.107,0,0,1,.147-.012l1.577,1.454A.1.1,0,0,1,1206.6,502.763Z"
                transform="translate(-1193.796 -501.146)" />
        </g>
        <g transform="translate(16.155)">
            <path class="a"
                d="M1214.724,493.423a1.238,1.238,0,0,1,.268-1.735,1.253,1.253,0,0,1,1.746.214,1.184,1.184,0,0,1-.332,1.65A1.2,1.2,0,0,1,1214.724,493.423Z"
                transform="translate(-1214.479 -483.179)" />
            <path class="a"
                d="M1230.41,483.989a1.2,1.2,0,0,1,.7-1.577,1.18,1.18,0,0,1,1.616.577,1.26,1.26,0,0,1-.7,1.577A1.241,1.241,0,0,1,1230.41,483.989Z"
                transform="translate(-1221.614 -479.065)" />
            <path class="a" d="M1247.948,478.659a1.261,1.261,0,0,1,2.492-.39,1.272,1.272,0,0,1-2.492.39Z"
                transform="translate(-1229.553 -476.787)" />
            <path class="a"
                d="M1257.34,477.62a1.16,1.16,0,0,1,1.227-1.2,1.227,1.227,0,0,1,1.3,1.165,1.211,1.211,0,0,1-1.228,1.175A1.288,1.288,0,0,1,1257.34,477.62Z"
                transform="translate(-1233.794 -476.419)" />
            <path class="a"
                d="M1224.472,488.473l-.491.272a.1.1,0,0,1-.139-.034l-1.093-1.847a.1.1,0,0,1,.045-.136l.518-.288a.1.1,0,0,1,.142.032l1.057,1.867A.1.1,0,0,1,1224.472,488.473Z"
                transform="translate(-1218.201 -480.924)" />
            <path class="a"
                d="M1241.281,481.426l-.534.17a.1.1,0,0,1-.125-.063l-.607-2.058a.105.105,0,0,1,.075-.126l.566-.179a.1.1,0,0,1,.129.062l.567,2.069A.1.1,0,0,1,1241.281,481.426Z"
                transform="translate(-1225.986 -477.655)" />
            <path class="a"
                d="M1268.324,479.051l-.558-.054a.1.1,0,0,1-.094-.107l.173-2.139a.1.1,0,0,1,.115-.086l.59.057a.1.1,0,0,1,.1.107l-.214,2.135A.1.1,0,0,1,1268.324,479.051Z"
                transform="translate(-1238.452 -476.53)" />
            <path class="a"
                d="M1277,480.4l-.549-.108a.1.1,0,0,1-.081-.115l.431-2.1a.1.1,0,0,1,.126-.075l.582.116a.1.1,0,0,1,.085.116l-.473,2.093A.1.1,0,0,1,1277,480.4Z"
                transform="translate(-1242.37 -477.129)" />
        </g>
        <g transform="translate(56.804 3.195)">
            <path class="a"
                d="M1288.549,482.935a1.2,1.2,0,0,1,1.623-.6,1.179,1.179,0,0,1,.713,1.558,1.265,1.265,0,0,1-1.623.6A1.237,1.237,0,0,1,1288.549,482.935Z"
                transform="translate(-1288.475 -482.23)" />
            <path class="a"
                d="M1304.618,491.763a1.182,1.182,0,0,1,1.723-.191,1.238,1.238,0,0,1,.28,1.727,1.2,1.2,0,0,1-1.687.142A1.262,1.262,0,0,1,1304.618,491.763Z"
                transform="translate(-1295.66 -486.307)" />
            <path class="a"
                d="M1318,504.293a1.22,1.22,0,0,1,1.724.229,1.162,1.162,0,0,1-.107,1.711,1.283,1.283,0,0,1-1.712-.239A1.218,1.218,0,0,1,1318,504.293Z"
                transform="translate(-1301.604 -492.046)" />
            <path class="a"
                d="M1323.628,511.9a1.242,1.242,0,0,1,1.7.432,1.257,1.257,0,0,1-.383,1.719,1.179,1.179,0,0,1-1.608-.491A1.2,1.2,0,0,1,1323.628,511.9Z"
                transform="translate(-1304.092 -495.506)" />
            <path class="a"
                d="M1297.918,488.624l-.5-.262a.1.1,0,0,1-.042-.132l1.054-1.87a.106.106,0,0,1,.143-.034l.524.278a.1.1,0,0,1,.046.134l-1.088,1.849A.106.106,0,0,1,1297.918,488.624Z"
                transform="translate(-1292.483 -484.068)" />
            <path class="a"
                d="M1312.129,499.651l-.4-.391a.1.1,0,0,1-.007-.142l1.475-1.558a.1.1,0,0,1,.144.005l.425.414a.1.1,0,0,1,.009.145l-1.5,1.529A.1.1,0,0,1,1312.129,499.651Z"
                transform="translate(-1298.94 -489.12)" />
            <path class="a"
                d="M1327.567,521.9l-.221-.515a.1.1,0,0,1,.048-.135l1.938-.918a.1.1,0,0,1,.131.058l.236.545a.105.105,0,0,1-.046.139l-1.956.88A.1.1,0,0,1,1327.567,521.9Z"
                transform="translate(-1305.989 -499.381)" />
            <path class="a"
                d="M1330.721,530.284l-.169-.534a.1.1,0,0,1,.062-.128l2.035-.675a.1.1,0,0,1,.125.072l.179.566a.1.1,0,0,1-.06.131l-2.049.636A.1.1,0,0,1,1330.721,530.284Z"
                transform="translate(-1307.435 -503.263)" />
        </g>
    </g>
    <g transform="translate(108.057 25.193)">
        <g transform="translate(0)">
            <path class="b"
                d="M1476.62,555.182l6.466,3.672a15.478,15.478,0,1,1,0-16.612l-6.466,3.731a7.6,7.6,0,0,0-6.814-3.789c-4.951,0-8.038,3.789-8.038,8.393s3.087,8.393,8.038,8.393A7.6,7.6,0,0,0,1476.62,555.182Z"
                transform="translate(-1410.27 -523.881)" />
            <path class="b"
                d="M1527.489,554.114c-.455.043-.966.078-1.375.078-4.077,0-4.542-1.981-4.542-5.362V538.047h5.912a18.779,18.779,0,0,1,5.068-6.761h-10.981v-6.179h-7.4v6.179h-4.193v6.761h4.193v12.008c0,6.12,3.03,11.191,10.6,11.191a9.531,9.531,0,0,0,3.087-.409V554.9Q1527.667,554.515,1527.489,554.114Z"
                transform="translate(-1435.411 -519.395)" />
            <path class="b"
                d="M1576.888,550.578a15.581,15.581,0,1,1-15.61-15.505A15.335,15.335,0,0,1,1576.888,550.578Zm-7.572,0c0-4.6-3.087-8.393-8.038-8.393-4.893,0-7.98,3.789-7.98,8.393s3.087,8.393,7.98,8.393C1566.229,558.971,1569.316,555.182,1569.316,550.578Z"
                transform="translate(-1451.52 -523.881)" />
            <path class="b"
                d="M1639.986,552.149c.047-.522.076-1.046.076-1.571s-.028-1.045-.075-1.565c-.007-.067-.018-.131-.025-.2-.729-7.122-5.841-13.742-14.345-13.742-.2,0-.381.021-.575.028s-.39-.028-.589-.028a15.765,15.765,0,0,0-8.213,2.257v-1.556h-7.4v40.8h7.4V563.812a15.717,15.717,0,0,0,8.213,2.27c.2,0,.4-.022.595-.029s.371.029.569.029c8.533,0,13.653-6.664,14.354-13.814C1639.975,552.228,1639.982,552.189,1639.986,552.149Zm-15.5,6.821a9.243,9.243,0,0,1-1.786-.173,7.438,7.438,0,0,1-4.517-2.844c-.015-.02-.032-.038-.046-.058s-.045-.071-.07-.105a9.627,9.627,0,0,1,0-10.426c.024-.034.044-.07.069-.1s.033-.04.048-.061a7.442,7.442,0,0,1,4.515-2.841,9.21,9.21,0,0,1,1.786-.173c4.933.015,8.009,3.8,8.009,8.392S1629.415,558.955,1624.481,558.97Z"
                transform="translate(-1479.964 -523.881)" />
            <path class="b"
                d="M1696.2,536.347l-14.482,40.8h-7.98l3.751-10.568-11.81-30.233h7.98l7.63,19.526,6.931-19.526Z"
                transform="translate(-1505.576 -524.455)" />
            <path class="b"
                d="M1395.32,514.715a21.1,21.1,0,1,0,21.085,21.1A21.092,21.092,0,0,0,1395.32,514.715Zm0,34.288a13.188,13.188,0,1,1,13.178-13.188A13.183,13.183,0,0,1,1395.32,549Z"
                transform="translate(-1374.235 -514.715)" />
        </g>
    </g>
    <g transform="translate(303.096 35.252)">
        <path class="b"
            d="M389.194,99.038a5.306,5.306,0,1,1,5.306-5.306A5.313,5.313,0,0,1,389.194,99.038Zm0-9.513a4.206,4.206,0,1,0,4.207,4.206A4.211,4.211,0,0,0,389.194,89.525Z"
            transform="translate(-383.888 -88.425)" />
    </g>
    <path class="b"
        d="M389.089,93.451a.982.982,0,0,0,.643-.167.685.685,0,0,0,.2-.55.666.666,0,0,0-.2-.541,1,1,0,0,0-.643-.164h-.6V93.45h.6m-.6.987v2.1h-1.428V90.993h2.182a2.772,2.772,0,0,1,1.6.368,1.332,1.332,0,0,1,.512,1.161,1.456,1.456,0,0,1-.267.9,1.534,1.534,0,0,1-.8.519,1.041,1.041,0,0,1,.523.3,2.708,2.708,0,0,1,.471.713l.776,1.572H390.54l-.676-1.377a1.515,1.515,0,0,0-.415-.567.922.922,0,0,0-.557-.152h-.4"
        transform="translate(-80.979 -53.324)" />
</svg>