<?xml version="1.0" encoding="utf-8"?>
<!-- Generator: Adobe Illustrator 25.1.0, SVG Export Plug-In . SVG Version: 6.00 Build 0)  -->
<svg version="1.1" xmlns="http://www.w3.org/2000/svg" xmlns:xlink="http://www.w3.org/1999/xlink" x="0px" y="0px"
	 viewBox="0 0 6072.3 2841.5" style="enable-background:new 0 0 6072.3 2841.5;" xml:space="preserve">
<style type="text/css">
	.st0{display:none;fill:none;}
	.st1{fill:#010101;}
	.st2{fill:#F3C957;}
</style>
<g id="Layer_1">
	<path class="st0" d="M1296.2,1756.1h-77.9c-99.3,0-180,80.8-180,180v69c0,99.3,80.8,180.1,180,180.1h77.9
		c99.3,0,180-80.8,180-180.1v-69C1476.3,1836.9,1395.5,1756.1,1296.2,1756.1z"/>
</g>
<g id="P">
	<path d="M244.6,1706.8H39.9V2403h49.3v-168.5h155.4c126.5,0,229.3-102.9,229.3-229.3v-69C474,1809.7,371.1,1706.8,244.6,1706.8z
		 M424.7,2005.2c0,99.3-80.8,180.1-180,180.1H89.2v-429.1h155.4c99.3,0,180,80.8,180,180V2005.2z"/>
</g>
<g id="r">
	<path d="M739.4,1706.8H585.2v527.7h49.3v-478.4h104.8c54.1,0,98.1,44,98.1,98.1v55.3h49.3v-55.3
		C886.8,1773,820.6,1706.8,739.4,1706.8z"/>
</g>
<g id="o">
	<path d="M1438,1756.1c-39.1-30.8-88.3-49.3-141.8-49.3h-77.9c-53.5,0-102.7,18.5-141.8,49.3c-53.3,42-87.5,107.1-87.5,180v69
		c0,73,34.3,138,87.5,180.1c39.1,30.8,88.3,49.3,141.8,49.3h77.9c53.5,0,102.7-18.5,141.8-49.3c53.3-42,87.5-107.1,87.5-180.1v-69
		C1525.6,1863.2,1491.3,1798.1,1438,1756.1z M1476.3,2005.2c0,99.3-80.8,180.1-180,180.1h-77.9c-99.3,0-180-80.8-180-180.1v-69
		c0-99.3,80.8-180,180-180h77.9c99.3,0,180,80.8,180,180V2005.2z"/>
</g>
<g id="m">
	<path d="M2139.9,1706.8H1907c0,0-0.1,0-0.1,0h-262.6v527.7h49.3v-478.4h244.4v478.4h49.3v-478.4h152.7c54.1,0,98.1,44,98.1,98.1
		v380.3h49.3v-380.3C2287.3,1772.9,2221.1,1706.8,2139.9,1706.8z"/>
</g>
<g id="e">
	<path d="M2629,1756.1h140.2v-49.3H2629c-126.5,0-229.3,102.9-229.3,229.3v69c0,126.5,102.9,229.3,229.3,229.3h140.2v-49.3H2629
		c-99.3,0-180-80.8-180-180.1V1987h311v-49.3h-311v-1.5C2448.9,1836.9,2529.7,1756.1,2629,1756.1z"/>
</g>
<g id="t">
	<path d="M2979.1,1756.1h202.7v-49.3h-202.7v-133.1h-49.3v133.1h-95.2v49.3h95.2v331c0,81.3,66.1,147.4,147.4,147.4h104.5v-49.3
		h-104.5c-54.1,0-98.1-44-98.1-98.1V1756.1z"/>
</g>
<g id="e_1_">
	<path d="M3521.6,1756.1h140.2v-49.3h-140.2c-126.5,0-229.3,102.9-229.3,229.3v69c0,126.5,102.9,229.3,229.3,229.3h140.2v-49.3
		h-140.2c-99.3,0-180-80.8-180-180.1V1987h311v-49.3h-311v-1.5C3341.6,1836.9,3422.3,1756.1,3521.6,1756.1z"/>
</g>
<g id="a">
	<path d="M4067.9,1706.8h-245.7v49.3h245.7c54.1,0,98.1,44,98.1,98.1v55.3h-221c-81.3,0-147.4,66.1-147.4,147.4v30.2
		c0,81.3,66.1,147.4,147.4,147.4h232.9c0.1,0,0.2,0,0.3,0h37.1v-380.3C4215.3,1772.9,4149.1,1706.8,4067.9,1706.8z M3945,2185.3
		c-54.1,0-98.1-44-98.1-98.1v-30.2c0-54.1,44-98.1,98.1-98.1h221v226.4l0,0v0H3945z"/>
</g>
<g id="ellipse">
	<circle cx="5082.5" cy="1947.3" r="327.2"/>
</g>
<g id="branch_side">
	<path class="st1" d="M4551.4,1484.3c51.4,3.5,146,46,283.7,127.4c20.1-14.9,41.6-28,64.2-39.1
		c-262.5-247.5-415.2-377.3-458.1-389.4c-49.7-9.7-167.9,18.3-180.8,72.7c1.2,77.6,60.9,184,130.1,258
		C4468.7,1516.8,4475.1,1489.5,4551.4,1484.3z"/>
</g>
<g id="branch_lower_left">
	<path class="st1" d="M4688.5,2082.5c-174,98.2-339.3,201.3-396,249.9c-108.7,122.6-280.8,304.2-341.1,375.5
		c34.7,26.6,390-290.3,547.3-365c51.9-19.9,162.9-65.8,279.8-111C4738.8,2189.4,4707.8,2138.7,4688.5,2082.5z"/>
</g>
<g id="branch_top">
	<path class="st1" d="M5379.4,1653.9c-10.1-299.7-12.2-1067.6,62.2-1249.3c15.3-92.6,199-314.9,155.3-361.2
		c-68.8,55.9-296,337.2-332.3,438c-35.2,246.3-78,745.3-85.3,1060C5256.6,1559.6,5325.5,1599.4,5379.4,1653.9z"/>
</g>
<g id="branch_corner">
	<path class="st1" d="M5494.3,2014.7c-3.6,21.9-8.8,43.2-15.7,63.8c24.9,26.1,47.5,49.9,67.1,69.8
		C5548.9,2128.3,5525.4,2078.4,5494.3,2014.7z"/>
</g>
<g id="branch_lower_right">
	<path class="st1" d="M5472.2,2096.4c-21.8,56.8-55.7,107.7-98.6,149.4c202.7,144.4,483.9,381.5,665,548.3
		C6072.4,2777.3,5736.3,2369.7,5472.2,2096.4z"/>
</g>
<g id="flame_side">
	<path class="st2" d="M5291.3,1609.7c-93.6-1.5-199.6,44.8-160.7,166.2c33.1,103.2,286.7,57.3,290.6,338.1
		c59.2-76.4,31.8-279.7-78.3-359.1C5243.4,1683.1,5218.7,1644.1,5291.3,1609.7z"/>
</g>
<g id="flame_top">
	<path class="st2" d="M4985.7,1426.3c49.4,101.2,13.4,135.6-47.8,221.6c-61.1,86-36.9,205.1,80.9,205.1
		c-27.5-27.8,7.4-83.9,59.1-208.7C5117,1549.7,5088.8,1458.1,4985.7,1426.3z"/>
</g>
<g id="flame_mid">
	<path class="st2" d="M5168.4,2352.1c-7.6-73.9-50.3-201.6-230.5-209.5c-261.7-11.5-223.5-223.5-99.3-387.8
		c9.6,124.2-0.9,168.1,265.1,173.8S5408.5,2215.9,5168.4,2352.1z"/>
</g>
<g id="flame_lower">
	<path class="st2" d="M4792.8,2182.7c19.1,36.9,157.4,206.5,306.3,183.6C5148.1,2182.7,4909.3,2272.5,4792.8,2182.7z"/>
</g>
</svg>
